<svg width="128" height="43" viewBox="0 0 128 43" fill="none" xmlns="http://www.w3.org/2000/svg">
<path d="M6.39676 21.8168C6.39676 22.323 6.35233 23.2131 7.64477 23.2131C8.41772 23.2131 9.14682 23.1806 9.14682 20.9278C9.14682 18.2927 7.58638 15.221 6.76131 15.221C6.39705 15.221 6.39705 15.8501 6.39705 16.186V21.8168H6.39676ZM6.39676 8.4825C6.39676 9.64534 7.20019 9.98807 7.79885 9.98807C9.00128 9.98807 9.00128 8.32338 9.00128 7.75064C9.00128 6.23511 8.41744 5.73383 7.5448 5.73383C6.59413 5.73383 6.39705 6.50639 6.39705 7.04298V8.4825H6.39676ZM1.63771 8.16255C1.63771 6.81155 1.60467 4.71047 1.5141 3.79728C1.39392 2.47418 1.2612 2.04093 1.2612 1.43033C1.2612 0.415235 1.93447 0.334961 2.38759 0.334961C2.97229 0.334961 3.54646 0.373675 4.15394 0.415235C4.74006 0.450533 5.36663 0.450533 5.95247 0.450533C7.30187 0.450533 8.14175 0.334961 9.14653 0.334961C10.3162 0.334961 13.2192 1.03893 13.2192 7.54341C13.2192 9.05809 13.0637 11.0786 12.0726 12.3166C11.7727 12.7071 11.3002 13.0937 11.3002 13.4066C11.3002 13.7524 11.8627 14.4575 12.293 15.1877C12.6775 15.8501 13.8848 17.942 13.8848 21.4738C13.8848 24.5706 12.293 27.4776 8.98078 27.4776C8.2833 27.4776 8.07454 27.2761 5.49137 27.2761C2.59721 27.2761 2.95036 27.4776 1.99001 27.4776C1.00658 27.4776 0.929688 26.8169 0.929688 26.4995C0.929688 24.8832 1.63771 25.5373 1.63771 19.7639V8.16255Z" fill="#962344"/>
<path d="M21.5467 19.9197C21.5467 21.3834 21.6453 22.9812 22.9024 22.9812C24.3626 22.9812 24.1854 20.9974 24.1854 19.7643V13.6401C24.1854 12.4773 24.1854 10.7394 22.807 10.7394C21.5467 10.7394 21.5467 12.477 21.5467 13.5134V19.9197ZM17.5156 11.8166C17.5156 10.539 17.5156 4.83301 22.9024 4.83301C27.8073 4.83301 28.2265 8.82992 28.2265 11.4289V20.152C28.2265 22.7501 28.0172 27.6326 22.807 27.6326C18.875 27.6326 17.5156 24.9152 17.5156 20.6971V11.8166Z" fill="#962344"/>
<path d="M39.2105 11.7284C39.2105 11.388 39.2785 10.5385 38.6246 10.5385C37.4558 10.5385 37.7956 14.0581 37.707 15.3376C37.4219 19.9907 36.9258 21.8586 36.9258 22.7903C36.9258 23.213 37.0665 23.5259 38.018 23.5259C39.3557 23.5259 39.2102 22.8652 39.2102 22.1185V11.7284H39.2105ZM36.5615 27.4778C35.821 27.4778 33.5771 27.4778 32.7508 29.2598C32.5837 29.6022 32.5204 30.0722 31.9785 30.0722C31.7697 30.0722 31.3359 29.9176 31.3359 29.4616C31.3359 28.9822 31.4587 28.9461 31.4587 27.7932C31.4587 26.8171 31.3815 26.4314 31.3815 25.9298C31.3815 25.5051 31.4587 25.4672 31.9787 25.0787C32.4185 24.804 32.6702 24.5336 33.0154 23.0949C33.8442 19.8751 34.5622 12.3168 34.5622 9.33016C34.5622 6.45623 33.9669 6.69506 33.9669 5.65036C33.9669 4.96205 34.628 5.02952 35.0922 5.02952C35.9426 5.02952 37.9411 5.1932 38.9242 5.1932C41.0862 5.1932 41.7495 4.99336 42.6759 4.99336C43.0644 4.99336 43.8701 4.96177 43.8701 5.69192C43.8701 5.95466 43.7066 6.29711 43.5708 6.86216C43.3979 7.54306 43.2621 8.63758 43.2621 9.4167V22.4732C43.2621 23.254 43.3982 24.7177 44.0023 25.1128C44.2794 25.2674 44.8627 25.3377 44.8627 26.0844C44.8627 26.3591 44.7766 26.6218 44.7561 26.8903C44.6992 27.1621 44.6992 27.4371 44.6992 27.7118C44.6992 28.6739 44.8627 29.0275 44.8627 29.4616C44.8627 29.9583 44.5243 30.122 44.2794 30.122C43.6616 30.122 43.4865 29.2976 43.1436 28.8692C42.0716 27.4775 40.5596 27.4775 39.0108 27.4775H36.5615V27.4778Z" fill="#962344"/>
<path d="M52.2112 19.9197C52.2112 21.3834 52.2909 22.9812 53.5261 22.9812C54.9934 22.9812 54.8294 20.9974 54.8294 19.7643V13.6401C54.8294 12.4773 54.8294 10.7394 53.4486 10.7394C52.2109 10.7394 52.2109 12.477 52.2109 13.5134V19.9197H52.2112ZM48.1487 11.8166C48.1487 10.539 48.1487 4.83301 53.5261 4.83301C58.4629 4.83301 58.8807 8.82992 58.8807 11.4289V20.152C58.8807 22.7501 58.6739 27.6326 53.4486 27.6326C49.5158 27.6326 48.1484 24.9152 48.1484 20.6971V11.8166H48.1487Z" fill="#962344"/>
<path d="M64.5573 9.32968C63.1424 5.73328 62.6679 6.10533 62.6679 5.64988C62.6679 5.33333 62.8812 4.99316 63.8259 4.99316C64.0509 4.99316 64.3121 4.99316 64.5254 5.02932C64.9549 5.06917 65.4382 5.14233 65.8699 5.14233C66.2467 5.14233 66.5874 5.10617 66.9647 5.06917C67.3276 5.02932 67.6727 4.99316 68.0023 4.99316C68.7971 4.99316 68.8832 5.49189 68.8832 5.83775C68.8832 6.15059 68.8447 6.42443 68.7971 6.72703C68.7541 7.04243 68.7089 7.31741 68.7089 7.63111C68.7089 9.14009 69.3833 10.3485 69.735 10.3485C70.1665 10.3485 70.7162 8.79594 70.7162 8.06322C70.7162 7.5941 70.5342 7.01311 70.0779 6.5383C69.8689 6.29691 69.5262 6.03331 69.5262 5.65016C69.5262 5.02932 70.2662 4.99345 70.6071 4.99345C71.3792 4.99345 71.9422 5.14233 72.4737 5.14233C73.137 5.14233 73.7114 4.99345 74.1315 4.99345C74.96 4.99345 75.4664 5.44947 75.4664 7.3177C75.4664 9.9175 73.9544 11.9708 73.2799 12.8597C72.4079 14.0237 71.4658 14.8316 71.4658 15.927C71.4658 17.2 73.7114 22.3916 73.9544 22.8949C75.3462 26.0387 75.9525 26.395 75.9525 26.9308C75.9525 27.3213 75.5552 27.4776 74.913 27.4776C73.6228 27.4776 74.7834 27.362 72.5964 27.362C72.233 27.362 71.8331 27.362 71.4908 27.3916C71.259 27.4369 70.9392 27.4776 70.6939 27.4776C69.6128 27.4776 69.6581 26.7745 69.6581 26.6717C69.6581 26.3173 69.8691 26.0389 69.8691 25.0349C69.8691 23.7554 68.7094 20.3497 67.9165 20.3497C67.5827 20.3497 66.8858 21.1502 66.8858 23.0181C66.8858 24.5707 67.5489 25.9641 68.6003 26.4312C68.8456 26.5422 69.2631 26.6717 69.2631 27.0899C69.2631 27.5932 68.1142 27.9069 67.4056 28.3649C66.5563 28.9459 65.9819 29.7222 65.3849 29.7222C64.5262 29.7222 62.3281 27.321 62.3281 23.9524C62.3281 21.7733 63.4861 19.6825 63.7838 19.0978C65.1779 16.6275 66.5107 15.8501 66.5107 15.1054C66.5099 14.6784 65.2659 11.0376 64.5573 9.32968Z" fill="#962344"/>
<path d="M83.4498 19.9197C83.4498 21.3834 83.527 22.9812 84.7849 22.9812C86.254 22.9812 86.0771 20.9974 86.0771 19.7643V13.6401C86.0771 12.4773 86.0771 10.7394 84.6873 10.7394C83.4495 10.7394 83.4495 12.477 83.4495 13.5134V19.9197H83.4498ZM79.3984 11.8166C79.3984 10.539 79.3984 4.83301 84.7852 4.83301C89.6992 4.83301 90.1284 8.82992 90.1284 11.4289V20.152C90.1284 22.7501 89.908 27.6326 84.6875 27.6326C80.7886 27.6326 79.3984 24.9152 79.3984 20.6971V11.8166Z" fill="#962344"/>
<path d="M101.119 11.7284C101.119 11.388 101.162 10.5385 100.511 10.5385C99.3659 10.5385 99.7065 14.0581 99.5954 15.3376C99.2978 19.9907 98.8344 21.8586 98.8344 22.7903C98.8344 23.213 98.9546 23.5259 99.9064 23.5259C101.264 23.5259 101.119 22.8652 101.119 22.1185V11.7284ZM98.4463 27.4778C97.7083 27.4778 95.4761 27.4778 94.6698 29.2598C94.4838 29.6022 94.3972 30.0722 93.8635 30.0722C93.6547 30.0722 93.2344 29.9176 93.2344 29.4616C93.2344 28.9822 93.3662 28.9461 93.3662 27.7932C93.3662 26.8171 93.2891 26.4314 93.2891 25.9298C93.2891 25.5051 93.3662 25.4672 93.8635 25.0787C94.3158 24.804 94.5604 24.5336 94.9244 23.0949C95.7301 19.8751 96.4592 12.3168 96.4592 9.33016C96.4592 6.45623 95.8734 6.69506 95.8734 5.65036C95.8734 4.96205 96.5233 5.02952 96.9906 5.02952C97.8399 5.02952 99.827 5.1932 100.81 5.1932C102.986 5.1932 103.658 4.99336 104.566 4.99336C104.938 4.99336 105.767 4.96177 105.767 5.69192C105.767 5.95466 105.59 6.29711 105.459 6.86216C105.304 7.54306 105.184 8.63758 105.184 9.4167V22.4732C105.184 23.254 105.304 24.7177 105.915 25.1128C106.165 25.2674 106.78 25.3377 106.78 26.0844C106.78 26.3591 106.674 26.6218 106.642 26.8903C106.585 27.1621 106.585 27.4371 106.585 27.7118C106.585 28.6739 106.78 29.0275 106.78 29.4616C106.78 29.9583 106.41 30.122 106.165 30.122C105.547 30.122 105.393 29.2976 105.025 28.8692C103.957 27.4775 102.442 27.4775 100.896 27.4775H98.4463V27.4778Z" fill="#962344"/>
<path d="M117.89 20.3782C117.89 22.8652 118.133 23.2538 119.203 23.2538C120.176 23.2538 120.983 23.0947 120.983 21.3514V17.5942C120.983 16.7393 120.894 15.4199 119.481 15.4199C117.803 15.4199 117.89 16.9292 117.89 17.7755V20.3782H117.89ZM113.139 9.17081C113.139 7.89866 112.835 7.54341 112.158 7.54341C111.455 7.54341 111.3 7.89866 111.077 8.16254C110.932 8.32337 110.646 8.70824 110.246 8.70824C109.997 8.70824 109.508 8.59807 109.508 7.63137C109.508 6.81155 109.642 6.69512 109.642 4.4873C109.642 2.04093 109.422 2.08163 109.422 1.43033C109.422 0.490101 109.997 0.334961 111.3 0.334961C112.061 0.334961 112.835 0.373675 113.598 0.450533C114.259 0.5365 114.911 0.64951 115.549 0.64951C116.587 0.64951 117.364 0.450533 118.001 0.450533C118.567 0.450533 118.608 0.723522 118.608 0.922499C118.608 1.47104 118.299 2.08163 118.133 2.8599C118.056 3.24931 117.89 4.71047 117.89 5.37657V10.6061C117.89 10.8087 117.89 11.0382 118.244 11.0382C118.399 11.0382 118.567 10.928 119.025 10.766C119.559 10.5745 120.354 10.3783 121.237 10.3783C125.586 10.3783 125.731 14.4578 125.731 15.6946V22.8225C125.731 27.4366 121.083 27.4366 119.922 27.4366C119.316 27.4366 118.753 27.4366 118.133 27.3913C117.404 27.3617 116.62 27.321 115.891 27.321C113.516 27.321 115.297 27.4773 113.139 27.4773C112.703 27.4773 112.249 27.321 112.249 26.6714C112.249 26.2698 112.503 25.7685 112.703 25.0782C113.012 24.1411 113.139 22.2461 113.139 21.2746V9.17081H113.139Z" fill="#962344"/>
<path d="M2.45395 36.0179V36.2359C2.24035 36.2359 2.12073 36.3862 2.12073 36.5866V38.8579C2.93726 38.7261 3.95144 38.4033 4.60393 37.8161C4.94654 37.5106 5.30995 37.019 5.30995 36.6367C5.30995 36.3546 5.21654 36.2638 5.04907 36.2453L4.96734 36.2359V36.0179H6.11936C6.12876 36.6914 5.90519 37.3148 5.51501 37.8067C5.07869 38.3484 4.48089 38.6806 4.31628 38.7668L6.03648 41.7942C6.14784 41.9994 6.35062 42.2767 6.75162 42.3174V42.5317H5.41362L3.46785 39.1081C3.23659 39.2035 2.79942 39.3586 2.12073 39.481V41.9621C2.12073 42.1671 2.24063 42.3174 2.45395 42.3174V42.5317H0.929688V42.3174C1.14357 42.3174 1.26319 42.1671 1.26319 41.9621V36.5863C1.26319 36.3859 1.14357 36.2356 0.929688 36.2356V36.0176H2.45395V36.0179Z" fill="#962344"/>
<path d="M9.77951 36.0176C11.9642 36.0176 12.2525 37.1095 12.2525 37.6922C12.2525 39.2129 10.4001 39.9365 8.63176 40.5508V41.9621C8.63176 42.1671 8.75622 42.3174 8.96868 42.3174V42.5317H7.44299V42.3174C7.65688 42.3174 7.77763 42.1671 7.77763 41.9621V36.5863C7.77763 36.3264 7.6002 36.2356 7.40625 36.2356V36.0176H9.77951ZM8.63176 39.9097C10.3918 39.4178 11.3952 38.557 11.3952 37.7332C11.3952 36.7366 10.3918 36.6458 9.62771 36.6458H8.63176V39.9097Z" fill="#962344"/>
<path d="M14.232 36.0179V36.2359H14.1739C14.0543 36.2359 13.8221 36.2544 13.9882 36.5599L15.7745 39.887L16.9849 36.7278C17.0575 36.5414 17.0575 36.4773 17.0575 36.4503C17.0575 36.4141 17.0393 36.2638 16.855 36.2453L16.7437 36.2359V36.0179H18.2317V36.2359C18.0643 36.2359 17.8322 36.2815 17.6465 36.7554L16.1006 40.6886C15.8593 41.3029 15.4219 42.2408 14.725 42.5497C14.5199 42.6405 14.2887 42.6684 14.0637 42.6684C13.7769 42.6684 13.5057 42.6134 13.2733 42.5317V41.2337H13.5536C13.5433 41.5935 13.7959 41.8164 14.1181 41.8164C14.6113 41.8164 15.0895 41.3339 15.3299 40.7606L13.0404 36.6458C12.8917 36.3686 12.8376 36.2356 12.5781 36.2356V36.0176H14.232V36.0179Z" fill="#962344"/>
<path d="M24.3706 36.233C24.1567 36.233 24.0368 36.3833 24.0368 36.5837V41.9595C24.0368 42.1644 24.1567 42.3147 24.3706 42.3147V42.5291H22.8435V42.3147C23.0574 42.3147 23.1781 42.1644 23.1781 41.9595V38.1359L19.981 40.7309V41.9595C19.981 42.1644 20.1009 42.3147 20.3156 42.3147V42.5291H18.7891V42.3147C19.0015 42.3147 19.1223 42.1644 19.1223 41.9595V36.5837C19.1223 36.3833 19.0015 36.233 18.7891 36.233V36.0149H20.3156V36.233C20.1009 36.233 19.981 36.3833 19.981 36.5837V39.9617L23.1781 37.3665V36.5834C23.1781 36.383 23.0574 36.2327 22.8435 36.2327V36.0146H24.3706V36.233Z" fill="#962344"/>
<path d="M25.5566 36.3671C25.8434 36.2251 26.2814 36.0341 26.8681 35.9478C27.1458 35.9023 27.4261 35.8838 27.7026 35.8838C28.0202 35.8838 28.3366 35.9023 28.6533 35.9757C29.7612 36.2439 30.0767 36.9999 30.0767 37.5456C30.0767 38.1329 29.5837 38.7702 28.7854 38.9205C29.3425 38.939 29.891 39.2166 30.1428 39.5989C30.2909 39.8132 30.3661 40.0859 30.3661 40.3504C30.3661 40.7327 30.2815 41.1056 30.1052 41.4332C29.8725 41.8611 29.4721 42.2479 28.8116 42.4808C28.393 42.6348 27.9373 42.6672 27.4907 42.6672C26.5879 42.6672 25.9357 42.4435 25.4062 42.1301V40.8645H25.6862L25.715 41.1417C25.7523 41.5064 26.1704 41.793 26.5027 41.9155C26.783 42.0157 27.08 42.0435 27.3794 42.0435C28.6533 42.0435 29.1374 41.4423 29.2969 41.1918C29.4356 40.9647 29.4903 40.7 29.4903 40.4272C29.4903 40.2223 29.4166 40.031 29.3061 39.8585C28.9495 39.3575 28.2904 39.3028 27.5186 39.3028H26.9969V38.6794H27.5186C28.1697 38.6794 28.8407 38.5747 29.1557 38.0512C29.2294 37.9276 29.2779 37.7867 29.2779 37.6455C29.2779 37.4998 29.2294 37.3495 29.1651 37.2086C28.9882 36.8579 28.7641 36.754 28.5055 36.6353C28.0307 36.4209 27.9099 36.4303 27.5471 36.4303C26.9878 36.4303 26.9581 36.4759 26.6443 36.6262C26.0405 36.9128 26.1237 37.1818 26.1704 37.3953L26.1883 37.491L25.9357 37.5735L25.5566 36.3671Z" fill="#962344"/>
<path d="M32.8709 36.233C32.6544 36.233 32.5348 36.3833 32.5348 36.5837V38.3269C32.9529 38.3175 33.7532 38.3315 34.4512 38.4818C35.8006 38.7639 36.4517 39.442 36.6838 39.9979C36.7943 40.2567 36.823 40.5396 36.823 40.8265C36.823 41.1402 36.7487 41.4593 36.5801 41.7181C36.0598 42.5467 35.157 42.5288 34.3384 42.5288H31.3438V42.3145C31.5579 42.3145 31.6798 42.1642 31.6798 41.9592V36.5834C31.6798 36.383 31.5576 36.2327 31.3438 36.2327V36.0146H32.8709V36.233ZM32.5348 41.9046H34.329C34.8508 41.9046 35.4173 41.8684 35.7442 41.2541C35.8277 41.0944 35.8732 40.908 35.8732 40.7309C35.8732 40.2845 35.6499 39.8382 35.0191 39.4701C34.347 39.0787 33.5948 38.9831 33.0172 38.9646L32.5345 38.9461V41.9046H32.5348ZM38.9724 36.0149V36.233C38.7583 36.233 38.6378 36.3833 38.6378 36.5837V41.9595C38.6378 42.1644 38.7586 42.3147 38.9724 42.3147V42.5291H37.4459V42.3147C37.6587 42.3147 37.7805 42.1644 37.7805 41.9595V36.5837C37.7805 36.3833 37.6587 36.233 37.4459 36.233V36.0149H38.9724Z" fill="#962344"/>
<path d="M50.0054 36.233C49.7892 36.233 49.6685 36.3833 49.6685 36.5837V41.9595C49.6685 42.1644 49.7892 42.3147 50.0054 42.3147V42.5291H48.4752V42.3147C48.6893 42.3147 48.8124 42.1644 48.8124 41.9595V38.1359L45.6129 40.7309V41.9595C45.6129 42.1644 45.7337 42.3147 45.9476 42.3147V42.5291H44.4219V42.3147C44.6358 42.3147 44.7542 42.1644 44.7542 41.9595V36.5837C44.7542 36.3833 44.6358 36.233 44.4219 36.233V36.0149H45.9476V36.233C45.7334 36.233 45.6129 36.3833 45.6129 36.5837V39.9617L48.8124 37.3665V36.5834C48.8124 36.383 48.6893 36.2327 48.4752 36.2327V36.0146H50.0054V36.233Z" fill="#962344"/>
<path d="M60.9228 36.0176V36.2356C60.7112 36.2356 60.5904 36.3859 60.5904 36.5863V41.9621C60.5904 42.1671 60.7112 42.3174 60.9228 42.3174V42.5317H59.3968V42.3174C59.6112 42.3174 59.7343 42.1671 59.7343 41.9621V36.6458H56.6464V41.9621C56.6464 42.1671 56.7649 42.3174 56.9788 42.3174V42.5317H55.4531V42.3174C55.6673 42.3174 55.79 42.1671 55.79 41.9621V36.5863C55.79 36.3859 55.667 36.2356 55.4531 36.2356V36.0176H60.9228Z" fill="#962344"/>
<path d="M63.422 36.0179V36.2359H63.3654C63.2466 36.2359 63.0145 36.2544 63.1783 36.5599L64.9685 39.887L66.1752 36.7278C66.2482 36.5414 66.2482 36.4773 66.2482 36.4503C66.2482 36.4141 66.2319 36.2638 66.0428 36.2453L65.936 36.2359V36.0179H67.4227V36.2359C67.2546 36.2359 67.0223 36.2815 66.8354 36.7554L65.2912 40.6886C65.05 41.3029 64.6125 42.2408 63.9159 42.5497C63.7108 42.6405 63.4787 42.6684 63.2532 42.6684C62.9664 42.6684 62.6952 42.6134 62.4654 42.5317V41.2337H62.7428C62.7337 41.5935 62.9866 41.8164 63.3098 41.8164C63.802 41.8164 64.2776 41.3339 64.5214 40.7606L62.2304 36.6458C62.0823 36.3686 62.0279 36.2356 61.7656 36.2356V36.0176H63.422V36.0179Z" fill="#962344"/>
<path d="M73.1499 37.118H72.8696C72.8696 36.9583 72.8061 36.8043 72.7058 36.7265C72.5922 36.6448 72.437 36.6448 72.2778 36.6448H70.786V41.9612C70.786 42.1661 70.909 42.3164 71.1252 42.3164V42.5308H69.5972V42.3164C69.8111 42.3164 69.9319 42.1661 69.9319 41.9612V36.6448H68.4424C68.2854 36.6448 68.1285 36.6448 68.0143 36.7265C67.9118 36.8045 67.8483 36.9585 67.8483 37.118H67.5703V36.0166H73.1499V37.118Z" fill="#962344"/>
<path d="M79.1878 36.0176V37.0919H78.9101C78.7894 36.6048 78.4573 36.6455 78.1861 36.6455H75.0521V38.553H77.191C77.5257 38.553 77.7945 38.5661 77.8877 38.2154H78.1656V39.5089H77.8877C77.7942 39.1537 77.5254 39.1722 77.191 39.1722H75.0521V41.9075H78.2585C78.8281 41.9075 79.1878 41.8352 79.2268 41.3712H79.5068V42.5317H73.8594V42.3174C74.0735 42.3174 74.1963 42.1671 74.1963 41.9621V36.5863C74.1963 36.3859 74.0733 36.2356 73.8594 36.2356V36.0176H79.1878Z" fill="#962344"/>
<path d="M81.8047 36.2337C81.5902 36.2337 81.4694 36.384 81.4694 36.5844V41.9055H84.1842V36.5844C84.1842 36.384 84.0657 36.2337 83.8496 36.2337V36.0156H85.3775V36.2337C85.1631 36.2337 85.0406 36.384 85.0406 36.5844V41.9055H87.7573V36.5844C87.7573 36.384 87.6366 36.2337 87.4227 36.2337V36.0156H88.9484V36.2337C88.7345 36.2337 88.6109 36.384 88.6109 36.5844V41.9602C88.6109 42.1651 88.7342 42.3154 88.9484 42.3154V42.5298H80.2812V42.3154C80.4909 42.3154 80.6139 42.1651 80.6139 41.9602V36.5844C80.6139 36.384 80.4909 36.2337 80.2812 36.2337V36.0156H81.8049V36.2337H81.8047Z" fill="#962344"/>
<path d="M95.3911 36.0176V37.0919H95.1132C94.9901 36.6048 94.6578 36.6455 94.3892 36.6455H91.2558V38.553H93.3918C93.7287 38.553 93.9976 38.5661 94.0884 38.2154H94.3684V39.5089H94.0884C93.9976 39.1537 93.7287 39.1722 93.3918 39.1722H91.2558V41.9075H94.4598C95.0266 41.9075 95.3914 41.8352 95.4276 41.3712H95.7098V42.5317H90.0625V42.3174C90.2764 42.3174 90.3949 42.1671 90.3949 41.9621V36.5863C90.3949 36.3859 90.2767 36.2356 90.0625 36.2356V36.0176H95.3911Z" fill="#962344"/>
<path d="M101.716 42.5131C101.272 42.6403 100.889 42.6682 100.573 42.6682C97.7262 42.6682 96.3281 40.5694 96.3281 38.94C96.3281 37.0826 97.9586 35.8848 99.623 35.8848C100.377 35.8848 101.306 36.1225 102.071 36.8589L101.242 37.6559L101.019 37.5102L101.047 37.4695C101.233 37.2284 101.037 37.0009 100.942 36.9044C100.749 36.7097 100.377 36.5045 99.6578 36.5045C97.9589 36.5045 97.2782 37.761 97.2782 38.94C97.2782 40.6241 98.7467 42.0445 100.45 42.0445C101.156 42.0445 101.393 41.7533 101.466 41.3978H101.716V42.5131Z" fill="#962344"/>
<path d="M108.229 37.118H107.949C107.949 36.9583 107.883 36.8043 107.783 36.7265C107.672 36.6448 107.51 36.6448 107.355 36.6448H105.866V41.9612C105.866 42.1661 105.989 42.3164 106.201 42.3164V42.5308H104.677V42.3164C104.891 42.3164 105.01 42.1661 105.01 41.9612V36.6448H103.521C103.363 36.6448 103.206 36.6448 103.092 36.7265C102.992 36.8045 102.926 36.9585 102.926 37.118H102.648V36.0166H108.23V37.118H108.229Z" fill="#962344"/>
<path d="M111.57 36.0176C112.221 36.0176 113.059 36.0176 113.578 36.5317C113.831 36.7728 113.997 37.1283 113.997 37.4836C113.997 37.6831 113.97 37.8972 113.879 38.0839C113.71 38.4301 113.375 38.7529 112.891 38.8855V38.9032C113.804 39.0629 114.475 39.7503 114.475 40.6513C114.475 41.2024 114.184 41.9263 113.401 42.277C112.963 42.4774 112.38 42.532 111.887 42.532H108.938V42.3177C109.265 42.2992 109.274 42.0532 109.274 41.9078V36.5866C109.274 36.3862 109.152 36.2359 108.938 36.2359V36.0179H111.57V36.0176ZM111.654 38.5849C111.916 38.5849 113.141 38.5849 113.141 37.6108C113.141 36.7554 112.258 36.6458 111.654 36.6458H110.128V38.5849H111.654ZM111.488 41.9072C112.13 41.9072 113.617 41.9442 113.617 40.6239C113.617 39.2943 112.239 39.1858 111.488 39.1858H110.128V41.9072H111.488Z" fill="#962344"/>
<path d="M121.017 36.233C120.803 36.233 120.682 36.3833 120.682 36.5837V41.9595C120.682 42.1644 120.803 42.3147 121.017 42.3147V42.5291H119.491V42.3147C119.708 42.3147 119.828 42.1644 119.828 41.9595V38.1359L116.627 40.7309V41.9595C116.627 42.1644 116.749 42.3147 116.961 42.3147V42.5291H115.438V42.3147C115.652 42.3147 115.77 42.1644 115.77 41.9595V36.5837C115.77 36.3833 115.652 36.233 115.438 36.233V36.0149H116.961V36.233C116.749 36.233 116.627 36.3833 116.627 36.5837V39.9617L119.828 37.3665V36.5834C119.828 36.383 119.708 36.2327 119.491 36.2327V36.0146H121.017V36.233Z" fill="#962344"/>
<path d="M127.068 36.2337C126.854 36.2337 126.731 36.384 126.731 36.5844V41.9602C126.731 42.1651 126.854 42.3154 127.068 42.3154V42.5298H125.542V42.3154C125.754 42.3154 125.875 42.1651 125.875 41.9602V39.5525H124.768L122.75 42.5298H121.734V42.3154C121.903 42.2562 122.099 42.1475 122.331 41.8016L123.914 39.4708C123.187 39.4159 122.536 39.0245 122.258 38.4643C122.138 38.2229 122.09 37.9456 122.09 37.6681C122.09 37.3128 122.211 36.9573 122.424 36.6891C122.909 36.0748 123.693 36.0156 124.171 36.0156H127.068V36.2337ZM125.875 36.6157H124.387C123.877 36.6157 123.037 36.6706 123.037 37.795C123.037 38.9288 124.185 38.9556 124.786 38.9556H125.875V36.6157Z" fill="#962344"/>
</svg>
