<svg xmlns="http://www.w3.org/2000/svg" xmlns:xlink="http://www.w3.org/1999/xlink" version="1.1">
    <!-- для css -->
    <view id="decor-header-bottom-view" viewBox="0 0 1820 10"/>
    <use xlink:href="#decor-header-bottom" width="1820" height="10" x="0" y="0"/>
    <view id="decor-social-view" viewBox="1900 0 14 14"/>
    <use xlink:href="#decor-social" width="14" height="14" x="1900" y="0"/>
    <view id="decor-text-orange-view" viewBox="1950 0 16 12"/>
    <use xlink:href="#decor-text" fill="#E65238" width="16" height="12" x="1950" y="0"/>
    <view id="decor-text-white-view" viewBox="2000 0 16 12"/>
    <use xlink:href="#decor-text" fill="#ffffff" width="16" height="12" x="2000" y="0"/>

    <!-- для html -->
    <symbol viewBox="0 0 300 18" id="decor-header-top">
        <path d="M24.71 3.03692H139.527C139.972 3.03692 140.338 3.35158 140.338 3.73368C140.338 8.43121 149.684 12.5219 151.569 13.2861C153.453 12.4994 162.799 8.40874 162.799 3.73368C162.799 3.35158 163.165 3.03692 163.61 3.03692H275.993C276.438 3.03692 276.804 3.35158 276.804 3.73368C276.804 4.11578 276.438 4.43044 275.993 4.43044H164.343C163.506 10.1619 152.38 14.4998 151.909 14.7021C151.699 14.792 151.464 14.792 151.254 14.7021C150.757 14.5223 139.658 10.1844 138.82 4.43044H24.71C24.2649 4.43044 23.8984 4.11578 23.8984 3.73368C23.9246 3.32911 24.2649 3.03692 24.71 3.03692Z"
              fill="#D1CFCE"/>
        <path d="M47.2803 6.00355H136.731C137.071 6.00355 137.359 6.18336 137.49 6.45307C139.139 10.1616 143.877 13.5556 151.573 16.5449C159.244 13.5556 163.982 10.1616 165.657 6.45307C165.788 6.18336 166.076 6.00355 166.416 6.00355H255.867C256.312 6.00355 256.678 6.31821 256.678 6.70031C256.678 7.08241 256.312 7.39707 255.867 7.39707H166.914C164.924 11.3079 159.872 14.8592 151.888 17.916C151.678 18.0059 151.443 18.0059 151.233 17.916C143.249 14.8592 138.196 11.3079 136.207 7.3746H47.2803C46.8352 7.3746 46.4688 7.05993 46.4688 6.67783C46.4949 6.31821 46.8352 6.00355 47.2803 6.00355Z"
              fill="#E0DFDF"/>
        <path d="M142.068 0.00172043C142.67 0.00172043 143.115 0.069149 143.456 0.36134C143.927 0.765912 143.901 1.30534 143.874 2.27182C143.848 2.65392 143.848 3.12592 143.848 3.7103C143.848 5.21621 147.225 7.91336 151.597 9.93622C155.969 7.89088 159.372 5.19373 159.372 3.7103C159.372 3.10344 159.346 2.60896 159.319 2.22687C159.267 1.32782 159.241 0.765913 159.712 0.383817C160.183 -0.0207558 160.812 0.00172138 161.937 0.0241976C162.382 0.0466738 162.932 0.0466728 163.613 0.0466728H299.241C299.686 0.0466728 300.052 0.361341 300.052 0.743436C300.052 1.12553 299.686 1.4402 299.241 1.4402H163.586C162.88 1.4402 162.304 1.41772 161.832 1.41772C161.466 1.39525 161.073 1.39525 160.864 1.39525C160.864 1.57506 160.864 1.88972 160.89 2.18192C160.916 2.58649 160.942 3.10344 160.942 3.73278C160.942 6.56478 155.288 9.84631 151.937 11.3522C151.702 11.4646 151.44 11.4646 151.204 11.3522C147.853 9.84631 142.225 6.56478 142.225 3.73278C142.225 3.12592 142.251 2.63144 142.251 2.22687C142.277 1.9122 142.277 1.57506 142.277 1.39525C142.068 1.39525 141.702 1.39525 141.361 1.41772C140.89 1.4402 140.288 1.46268 139.555 1.46268H0.811518C0.366492 1.4402 0 1.12553 0 0.743436C0 0.361341 0.366492 0.0466728 0.811518 0.0466728H139.555C140.262 0.0466728 140.838 0.0241966 141.283 0.00172043C141.571 0.00172043 141.832 0.00172043 142.068 0.00172043Z"
              fill="#C9C7C5"/>
    </symbol>
    <symbol viewBox="0 0 1820 10" id="decor-header-bottom">
        <path d="M0.539034 10H896.885C900.853 10 907.142 4.32432 909.493 1.26126C911.604 4.0991 917.264 10 922.115 10H1819.46C1819.76 10 1820 9.81982 1820 9.59459C1820 9.36937 1819.76 9.18919 1819.46 9.18919H922.115C917.608 9.18919 911.694 2.85285 909.987 0.21021C909.897 0.0900901 909.702 0 909.507 0C909.298 0 909.103 0.0900901 909.013 0.225225C907.291 2.8979 900.539 9.2042 896.885 9.2042H0.539034C0.239571 9.2042 0 9.38439 0 9.60961C0 9.83484 0.239571 10 0.539034 10Z" fill="#D1CFCE"/>
        <path d="M909.506 10C909.716 10 909.91 9.90991 910 9.77478C911.722 7.1021 918.475 0.795796 922.128 0.795796H1819.46C1819.76 0.795796 1820 0.615616 1820 0.39039C1820 0.165165 1819.75 0 1819.45 0H922.113C918.146 0 911.857 5.67568 909.506 8.73874C907.395 5.9009 901.735 0 896.884 0H0.539025C0.239567 0 0 0.18018 0 0.405405C0 0.630631 0.239567 0.810811 0.539025 0.810811H896.884C901.391 0.810811 907.305 7.14715 909.012 9.78979C909.102 9.92493 909.297 10 909.506 10Z" fill="#D1CFCE"/>
        <path d="M0.539034 5.81081H885.255C885.555 5.81081 885.794 5.63063 885.794 5.40541C885.794 5.18018 885.555 5 885.255 5H0.539034C0.239571 5.01502 0 5.1952 0 5.40541C0 5.63063 0.239571 5.81081 0.539034 5.81081Z" fill="#E0DFDF"/>
        <path d="M933.742 5.40456H1819.46C1819.76 5.40456 1820 5.22438 1820 4.99916C1820 4.77393 1819.76 4.59375 1819.46 4.59375H933.742C933.443 4.59375 933.203 4.77393 933.203 4.99916C933.203 5.22438 933.443 5.40456 933.742 5.40456Z" fill="#E0DFDF"/>
    </symbol>
    <symbol viewBox="0 0 18 12" id="social-vk">
        <path d="M17.9045 10.416C17.8827 10.3659 17.8624 10.3244 17.8435 10.2911C17.5312 9.69111 16.9345 8.95471 16.0535 8.08164L16.0349 8.06165L16.0256 8.05185L16.0162 8.0418H16.0067C15.6069 7.63525 15.3537 7.3619 15.2477 7.22195C15.0537 6.95536 15.0102 6.68551 15.1163 6.41209C15.1912 6.20551 15.4726 5.76924 15.9597 5.10268C16.216 4.74943 16.419 4.46631 16.5688 4.25301C17.6498 2.72011 18.1185 1.74057 17.9747 1.314L17.9188 1.21432C17.8813 1.1543 17.7845 1.0994 17.6285 1.04933C17.4721 0.999366 17.2722 0.991103 17.0285 1.0244L14.3295 1.04429C14.2858 1.02776 14.2233 1.0293 14.142 1.04933C14.0607 1.06936 14.0201 1.07941 14.0201 1.07941L13.9731 1.10444L13.9358 1.13452C13.9046 1.15441 13.8702 1.18939 13.8327 1.23939C13.7954 1.28921 13.7642 1.34768 13.7392 1.41431C13.4454 2.22071 13.1113 2.97046 12.7363 3.66352C12.5051 4.07678 12.2928 4.43494 12.0989 4.73819C11.9053 5.04134 11.7428 5.26469 11.6117 5.40786C11.4804 5.55117 11.3619 5.66598 11.2555 5.75271C11.1492 5.83947 11.0681 5.87613 11.012 5.86272C10.9557 5.84931 10.9027 5.83601 10.8525 5.8227C10.7651 5.76269 10.6947 5.68107 10.6417 5.57778C10.5885 5.47449 10.5526 5.34449 10.5339 5.18787C10.5153 5.03115 10.5042 4.89635 10.5011 4.78301C10.4982 4.66981 10.4995 4.50969 10.5058 4.30311C10.5123 4.09643 10.5153 3.95658 10.5153 3.88326C10.5153 3.62998 10.5199 3.35508 10.5292 3.05852C10.5386 2.76195 10.5463 2.52698 10.5527 2.35387C10.559 2.18059 10.562 1.99725 10.562 1.80398C10.562 1.6107 10.551 1.45913 10.5292 1.34912C10.5076 1.23924 10.4746 1.13259 10.431 1.0292C10.3872 0.925908 10.3231 0.846007 10.2389 0.789285C10.1546 0.732633 10.0497 0.687675 9.92496 0.654272C9.59379 0.574336 9.17208 0.531094 8.65965 0.524372C7.4976 0.511066 6.75093 0.591107 6.41979 0.76439C6.28859 0.837603 6.16986 0.937637 6.0637 1.06418C5.95121 1.21085 5.93552 1.29089 6.01673 1.30406C6.39166 1.36396 6.65708 1.50727 6.8133 1.73385L6.86959 1.85391C6.91338 1.94053 6.9571 2.09389 7.00086 2.31378C7.04455 2.53366 7.07275 2.7769 7.08516 3.04336C7.11634 3.52994 7.11634 3.94646 7.08516 4.29296C7.05387 4.63959 7.02433 4.90944 6.99613 5.10272C6.96794 5.29599 6.92579 5.45261 6.86959 5.57253C6.8133 5.69249 6.77584 5.76581 6.75707 5.79242C6.73832 5.81903 6.7227 5.8358 6.71029 5.84238C6.62908 5.87557 6.54462 5.89249 6.45721 5.89249C6.36966 5.89249 6.26351 5.84578 6.13857 5.75243C6.01367 5.65908 5.88405 5.53086 5.74969 5.36756C5.61534 5.20422 5.46382 4.97597 5.29507 4.68276C5.12644 4.38956 4.95148 4.04303 4.77029 3.64318L4.62038 3.35319C4.52666 3.16664 4.39864 2.895 4.23619 2.53853C4.07364 2.18192 3.92996 1.83696 3.80506 1.50374C3.75514 1.36379 3.68013 1.25724 3.58018 1.18392L3.53327 1.15385C3.50209 1.12724 3.45203 1.09898 3.38336 1.06887C3.31459 1.03879 3.24283 1.01722 3.1678 1.00395L0.599913 1.02384C0.337509 1.02384 0.159465 1.08725 0.0657161 1.21389L0.0281968 1.2738C0.00945366 1.30717 0 1.36046 0 1.43382C0 1.50713 0.0187432 1.59712 0.0562624 1.70367C0.431126 2.64343 0.838782 3.54976 1.27923 4.42279C1.71968 5.29582 2.10242 5.99907 2.42723 6.5319C2.7521 7.06513 3.08324 7.56838 3.42065 8.04141C3.75806 8.51462 3.9814 8.81787 4.09068 8.9511C4.20008 9.08457 4.28602 9.18436 4.34849 9.25099L4.58282 9.49087C4.73277 9.65085 4.95296 9.84244 5.2435 10.0657C5.5341 10.289 5.85582 10.5089 6.20882 10.7257C6.56189 10.9421 6.97263 11.1187 7.44128 11.2553C7.90986 11.392 8.36593 11.4469 8.80956 11.4204H9.88734C10.1059 11.4003 10.2715 11.327 10.3841 11.2004L10.4214 11.1503C10.4465 11.1105 10.4699 11.0487 10.4916 10.9656C10.5135 10.8823 10.5244 10.7905 10.5244 10.6907C10.518 10.4042 10.5385 10.1459 10.5852 9.91604C10.6319 9.68621 10.6852 9.51293 10.7447 9.39623C10.8042 9.27963 10.8714 9.18124 10.9461 9.10148C11.021 9.02155 11.0744 8.97312 11.1057 8.95646C11.1368 8.93969 11.1617 8.92831 11.1804 8.92148C11.3304 8.86819 11.5068 8.9198 11.7101 9.07655C11.9132 9.23317 12.1037 9.42655 12.2818 9.65638C12.4599 9.88642 12.6739 10.1445 12.9237 10.431C13.1738 10.7176 13.3924 10.9307 13.5798 11.0709L13.7671 11.1908C13.8922 11.2709 14.0547 11.3442 14.2547 11.4108C14.4543 11.4774 14.6292 11.4941 14.7793 11.4608L17.1784 11.4209C17.4157 11.4209 17.6004 11.3789 17.7314 11.2958C17.8626 11.2125 17.9405 11.1207 17.9657 11.0209C17.9908 10.921 17.9921 10.8076 17.9704 10.6808C17.9482 10.5544 17.9263 10.466 17.9045 10.416Z"
              fill="currentColor"/>
    </symbol>
    <symbol viewBox="0 0 16 16" id="social-od">
        <path d="M3.14732 8.58804C2.73865 9.39137 3.20265 9.77537 4.26132 10.4314C5.16132 10.9874 6.40465 11.1907 7.20332 11.272C6.87598 11.5867 8.37598 10.144 4.05598 14.2994C3.13998 15.1774 4.61465 16.586 5.52998 15.7267L8.00798 13.3367C8.95665 14.2494 9.86598 15.124 10.486 15.73C11.402 16.5927 12.876 15.196 11.97 14.3027C11.902 14.238 8.61198 11.082 8.81265 11.2754C9.62132 11.194 10.846 10.9787 11.7353 10.4347L11.7347 10.434C12.7933 9.77471 13.2573 9.39137 12.8547 8.58804C12.6113 8.13204 11.9553 7.75071 11.082 8.41004C11.082 8.41004 9.90265 9.31337 8.00065 9.31337C6.09798 9.31337 4.91932 8.41004 4.91932 8.41004C4.04665 7.74738 3.38798 8.13204 3.14732 8.58804Z"
              fill="currentColor"/>
        <path d="M7.99929 8.09467C10.318 8.09467 12.2113 6.28267 12.2113 4.052C12.2113 1.812 10.318 0 7.99929 0C5.67995 0 3.78662 1.812 3.78662 4.052C3.78662 6.28267 5.67995 8.09467 7.99929 8.09467ZM7.99929 2.05267C9.13862 2.05267 10.068 2.94667 10.068 4.052C10.068 5.148 9.13862 6.042 7.99929 6.042C6.85995 6.042 5.93062 5.148 5.93062 4.052C5.92995 2.946 6.85929 2.05267 7.99929 2.05267Z"
              fill="currentColor"/>
    </symbol>
    <symbol viewBox="0 0 14 14" id="decor-social">
        <rect x="7" y="0.707107" width="8.89949" height="8.89949" transform="rotate(45 7 0.707107)" fill="transparent"
              stroke="white" stroke-opacity="0.4"/>
        <rect x="7" y="4.90657" width="2.9598" height="2.9598" transform="rotate(45 7 4.90657)" fill="transparent"
              stroke="white" stroke-opacity="0.8"/>
    </symbol>
    <symbol viewBox="0 0 380 90" id="bg--blob">
        <path d="M192.697 4.92745C192.445 5.22028 192.385 5.34146 192.324 5.34146C190.408 5.43233 188.493 5.50302 186.577 5.61409C186.355 5.62419 186.133 5.83624 185.912 5.96751C185.781 6.04829 185.639 6.24014 185.539 6.20985C184.893 6.01799 185.065 6.55317 184.974 6.89649C186.587 7.01766 188.11 7.06815 189.612 7.2701C191.155 7.48215 192.697 8.1284 194.22 8.06781C195.601 8.01732 197.023 8.79484 198.364 8.18898C198.757 8.1183 199.11 8.00722 199.463 8.01732C199.775 8.01732 200.088 8.18898 200.41 8.20918C200.602 8.21928 200.793 8.0981 200.985 8.02742C200.844 7.82547 200.713 7.62352 200.562 7.43166C200.481 7.32059 200.39 7.22971 200.34 7.01766C201.489 7.48215 202.79 6.67434 203.879 7.91635C204.272 8.37074 205.068 8.43133 205.683 8.46162C206.843 8.5222 208.002 8.48181 209.152 8.37074C209.898 8.30006 210.705 8.60298 211.38 7.94664C211.461 7.86586 211.713 7.93654 211.834 8.03752C212.923 8.91601 214.173 8.74435 215.373 8.85543C216.431 8.9564 217.48 9.04728 218.539 9.09777C218.771 9.10787 219.002 8.88572 219.174 8.5525C220.122 8.72416 221.059 8.90591 222.098 9.08767C222.501 10.3297 223.6 9.83489 224.437 10.0066C225.526 10.2388 226.706 10.0267 227.744 10.4307C228.52 10.7336 229.216 10.5013 229.942 10.6023C230.224 10.6427 230.497 10.7437 230.739 10.9153C231.394 10.8447 232.039 10.774 232.594 10.7235C232.836 10.4508 233.088 10.0066 233.249 10.0469C233.552 10.1378 233.804 10.4912 234.066 10.7538C234.267 10.9456 234.439 11.2688 234.661 11.3293C235.659 11.6121 236.677 11.8039 237.685 12.0766C237.927 12.1472 238.139 12.3896 238.371 12.5713C238.522 12.4603 238.714 12.2179 238.875 12.2381C240.599 12.3997 242.323 12.5915 244.047 12.8036C246.054 13.0459 248.07 13.3085 250.077 13.5912C250.531 13.6518 250.964 13.884 251.428 13.9547C252.446 14.1062 253.475 14.2274 254.503 14.3182C254.644 14.3283 254.795 14.0759 254.866 14.0153C255.239 14.1466 255.642 14.4394 256.015 14.3788C256.237 14.3384 256.388 13.7326 256.651 13.2277C257.074 13.3691 257.669 13.6114 258.274 13.7225C258.445 13.7528 258.677 13.3893 258.728 13.3388C259.796 13.4801 260.764 13.6417 261.732 13.7326C262.68 13.8235 263.628 13.8436 264.616 13.9042C264.717 13.6316 264.817 13.3691 264.979 12.9349C264.969 13.9446 265.382 14.0456 266.007 14.0052C266.773 13.9648 267.54 14.1567 268.306 14.1971C268.679 14.2173 269.052 14.0557 269.435 14.0557C270.433 14.0456 271.432 14.1567 272.42 14.0456C272.894 13.985 273.69 14.1668 273.68 12.8945C273.035 12.7127 272.349 12.4502 271.653 12.3492C270.575 12.1876 269.486 12.1977 268.417 12.0059C267.812 11.8948 267.227 11.5313 266.632 11.3091C266.491 11.2587 266.31 11.3798 266.168 11.3394C265.937 11.2688 265.654 11.1981 265.513 11.0062C265.18 10.5316 264.969 10.3196 264.757 11.1072C264.575 11.7736 264.071 11.8039 263.608 11.7938C262.297 11.7635 260.986 11.6929 259.665 11.6828C259.292 11.6828 258.919 11.8443 258.465 11.9554C258.274 11.703 257.981 11.3192 257.699 10.9355C257.548 11.2082 257.397 11.4707 257.245 11.7433C257.195 11.8544 257.135 11.9756 257.084 12.0867C256.852 11.7131 256.62 11.3495 256.388 10.9759C256.338 10.8548 256.288 10.7437 256.237 10.6225C256.096 10.9254 255.965 11.2284 255.753 11.6929C255.622 11.299 255.531 11.0163 255.39 10.6023C256.308 10.3802 257.135 10.1782 258.002 9.95607C257.921 9.62285 257.86 9.35021 257.8 9.07757C257.85 9.02709 257.891 8.9766 257.941 8.92611C258.092 9.08767 258.344 9.21894 258.385 9.4108C258.506 10.0167 258.808 10.057 259.242 10.0469C260.774 10.0268 262.307 10.0772 263.839 10.0368C264.394 10.0268 264.948 9.78441 265.513 9.71372C266.088 9.64304 266.673 9.63294 267.257 9.62285C269.052 9.59255 270.857 9.63294 272.652 9.51177C273.388 9.46128 274.114 9.08767 274.839 8.82513C275.666 8.5323 276.503 8.27986 277.32 7.88606C278.187 7.47205 279.346 7.90625 280.375 8.00723C280.909 8.05772 281.433 8.17889 281.958 8.26977C282.059 8.28996 282.2 8.22938 282.27 8.28996C283.258 9.09777 284.327 9.14826 285.456 8.89582C285.799 8.81504 286.202 9.13816 286.565 9.12806C286.838 9.11797 287.1 8.87562 287.14 8.85543C287.927 9.12806 288.521 9.43099 289.147 9.54207C290.387 9.76421 291.637 9.89548 292.887 10.0368C293.321 10.0873 293.754 10.0469 294.268 10.0469C294.299 9.95607 294.379 9.72382 294.5 9.4007C294.762 9.74402 294.954 9.99646 295.146 10.259C295.156 10.1681 295.166 10.0873 295.166 9.99646C296.356 10.1277 297.535 10.2792 298.725 10.3903C299.169 10.4307 299.612 10.3903 300.066 10.3802C300.136 10.3802 300.227 10.3196 300.278 10.36C301.82 11.4 303.554 11.3899 305.228 11.7131C306.307 11.915 307.396 12.0665 308.475 12.1977C308.979 12.2583 309.503 12.2179 310.017 12.2179C310.158 12.2179 310.32 12.1372 310.421 12.2078C311.842 13.1772 312.74 11.6121 313.879 11.188C314.403 10.9961 314.968 10.9052 315.512 10.9052C315.936 10.9052 316.379 11.0971 316.783 11.2688C316.944 11.3394 317.035 11.6121 317.156 11.7938C316.994 11.9453 316.853 12.1775 316.672 12.2381C316.067 12.4199 315.442 12.5411 314.827 12.6925C314.817 12.8541 314.807 13.0055 314.796 13.1671C315.331 13.3186 315.855 13.5003 316.389 13.6215C317.972 13.985 319.555 14.4495 321.148 14.6313C322.59 14.7928 324.062 14.6212 325.514 14.6414C325.807 14.6414 326.089 14.8635 326.381 14.9645C326.795 15.1059 327.208 15.8531 327.531 15.0857C327.984 15.2169 328.368 15.328 328.952 15.4997C328.72 14.7726 328.569 14.2879 328.408 13.8134C328.216 13.258 328.206 13.2681 328.771 13.0661C329.638 14.0153 330.061 15.0453 329.134 16.2873C328.882 16.2368 328.549 16.1358 328.206 16.1156C327.994 16.0954 327.773 16.1964 327.551 16.2368C327.631 16.469 327.652 16.8023 327.793 16.9234C328.247 17.3172 328.72 17.7514 329.245 17.9635C329.961 18.2563 330.737 18.327 331.483 18.5289C332.3 18.7511 333.106 19.0136 333.923 19.256C334.074 19.3065 334.286 19.4175 334.387 19.3368C335.647 18.4482 337.008 18.7309 338.339 18.8521C338.934 18.9026 339.509 19.256 340.104 19.367C340.618 19.4579 341.233 19.7003 341.424 18.842C342.927 20.1749 343.945 18.8521 345.044 17.8827C344.55 16.3378 343.078 16.4892 342.201 15.4997C343.653 15.7622 345.115 15.9944 346.556 16.3277C346.738 16.3681 347.01 17.0042 346.95 17.2869C346.506 19.4983 346.556 19.67 348.16 20.6999C348.311 20.8009 348.462 21.1139 348.462 21.3159C348.422 22.78 348.593 24.1735 349.148 25.5064C349.44 26.2031 349.642 26.193 350.005 25.5771C350.095 25.7083 350.267 25.8497 350.247 25.9406C350.035 27.0614 350.72 27.6976 351.184 28.4044C351.396 28.7275 351.87 28.7982 352.223 28.98C352.324 28.6569 352.354 28.2731 352.525 28.0308C352.908 27.5057 353.372 27.0513 353.796 26.5666C353.987 26.3546 354.159 26.0921 354.38 25.9406C354.612 25.7891 354.895 25.7386 355.157 25.6478C355.187 25.8699 355.248 26.1022 355.248 26.3243C355.248 26.5464 355.157 26.7585 355.147 26.9806C355.106 28.3741 354.854 28.6468 353.685 28.3438C353.685 28.8588 353.685 29.3536 353.685 29.8888C354.451 29.8484 355.157 29.808 355.963 29.7575C356.044 30.2018 356.175 30.8783 356.316 31.6457C357.002 30.8884 357.748 30.9288 358.655 31.777C359.482 32.5545 360.48 32.3021 361.388 32.5646C361.529 32.605 361.741 32.3526 362.043 32.1506C362.013 32.4233 362.043 32.6757 361.962 32.7666C361.267 33.4734 361.831 33.635 362.265 33.8773C363.092 34.3418 363.949 34.362 364.846 34.3822C365.622 34.4024 366.429 34.564 367.034 35.5939C366.691 35.5333 366.459 35.4929 366.036 35.4122C366.197 35.8968 366.328 36.2704 366.449 36.634C365.663 36.7753 365.37 36.4825 365.32 35.604C365.31 35.4122 365.108 35.1193 364.957 35.089C364.191 34.9275 363.404 34.8265 362.487 34.6851C362.577 35.0991 362.638 35.3617 362.688 35.6343C362.819 36.3007 362.93 36.9066 362.245 37.3206C361.912 37.5226 361.71 38.0173 361.973 38.5929C362.154 38.9766 362.194 39.4613 362.315 39.9965C363.586 38.3102 364.523 39.9662 365.663 40.2691C365.27 40.5114 364.957 40.7134 364.604 40.9355C364.231 40.7336 363.797 40.4509 363.324 40.2792C363.132 40.2085 362.87 40.3903 362.668 40.5316C362.608 40.572 362.648 41.0163 362.709 41.0365C362.89 41.1072 363.102 41.0769 363.303 41.0769C363.465 41.0769 363.626 41.0769 363.687 41.0769C363.626 41.5717 363.576 41.9453 363.525 42.3189C363.797 42.1876 364.08 42.0564 364.493 41.8645C364.685 42.0463 365.34 42.0665 365.088 43.0762C364.876 42.7834 364.735 42.6017 364.604 42.43C364.544 42.4502 364.493 42.4603 364.433 42.4805C364.453 42.8036 364.382 43.1873 364.503 43.4297C364.775 43.9648 364.927 44.4091 364.473 44.914C364.372 45.0251 364.382 45.5098 364.473 45.6006C364.876 45.9541 365.32 46.2166 365.753 46.5094C365.804 46.4286 365.854 46.358 365.895 46.2772C365.985 46.6104 366.086 46.9436 366.217 47.4182C366.399 47.0951 366.52 46.883 366.631 46.6912C367.226 46.9234 366.449 48.327 367.397 48.0746C367.73 48.6198 368.022 49.1146 368.395 49.7407C368.083 51.5986 368.839 53.4768 369.212 55.4155C369.555 57.2331 369.958 59.0507 369.504 60.8985C369.292 61.7669 368.929 62.5848 368.587 63.3926C368.516 63.5643 368.264 63.635 367.982 63.5845C368.123 63.3926 368.254 63.1907 368.435 62.9483C368.113 62.5242 367.79 62.1001 367.468 61.676C368.173 61.2116 368.385 59.9594 367.891 59.2223C367.82 59.1213 367.74 59.0305 367.669 58.9295C366.973 57.9601 366.973 57.9601 366.207 58.9497C365.663 57.839 365.128 56.7484 364.584 55.6478C364.292 55.668 363.949 55.6882 363.717 55.7084C363.293 56.4152 362.91 57.0614 362.517 57.7077C362.467 57.6067 362.416 57.5057 362.366 57.4048C361.952 57.5259 361.539 57.7582 361.126 57.7582C360.329 57.7683 359.875 58.5458 359.23 58.8588C357.879 59.5152 357.536 59.4546 356.659 57.5562C356.326 58.1116 355.943 58.5458 355.762 59.081C355.469 59.9594 355.157 60.7471 354.431 61.2116C354.32 61.2822 354.34 61.6256 354.29 61.8477C354.552 61.8881 354.824 61.9285 355.086 61.9689C355.096 61.8881 355.096 61.8073 355.106 61.7366C355.439 61.9992 355.782 62.2617 356.195 62.5848C355.631 63.0291 355.318 63.8975 354.562 63.2614C354.542 63.2513 354.501 63.2513 354.481 63.2614C353.786 64.0288 352.666 63.8268 352.051 64.7861C351.971 64.9174 351.789 65.0587 351.809 65.1597C352.092 66.8763 350.761 66.7955 350.116 67.0379C348.835 67.5125 347.434 67.5528 346.083 67.7447C345.82 67.7851 345.538 67.6841 345.276 67.7346C345.004 67.7952 344.641 67.876 344.489 68.1082C343.975 68.9362 343.542 69.8349 343.007 70.8144C343.814 70.5114 344.56 70.1681 345.336 69.9763C346.002 69.8147 346.698 69.7945 347.373 69.8046C348.19 69.8147 348.18 70.4913 347.897 71.1173C347.665 71.6424 347.282 72.0665 346.97 72.5411C347.484 72.8238 348.472 72.4906 348.654 71.8039C348.885 70.9154 349.299 70.4206 350.166 70.2388C350.055 70.5417 350.025 70.8346 349.884 70.9961C349.319 71.6828 349.349 72.1675 350.136 72.531C350.287 72.6017 350.388 72.844 350.438 73.157C350.095 73.0459 349.763 72.9349 349.369 72.8036C349.279 73.0863 349.248 73.3994 349.097 73.5508C348.845 73.8033 348.351 74.1971 348.24 74.0961C347.605 73.5205 347.121 74.0961 346.556 74.2173C345.256 74.4798 343.955 74.8231 342.644 74.1668C341.495 73.5912 340.92 74.0153 340.487 75.4391C340.335 75.9339 339.912 76.3075 339.67 76.7821C339.398 77.3172 339.236 77.9231 338.954 78.4482C338.753 78.8218 338.39 79.0641 338.168 79.4377C337.986 79.7407 337.845 80.1345 337.825 80.5081C337.775 81.2755 337.805 82.0429 337.805 82.9618C336.968 82.4468 336.282 82.0227 335.516 81.5481C335.365 82.1237 335.234 82.669 335.072 83.2849C334.568 82.9315 334.276 82.6387 334.427 81.9217C334.639 80.8918 333.983 80.2556 333.51 79.2661C333.268 79.9426 333.137 80.4273 332.925 80.8615C332.411 81.9318 331.846 82.9618 331.332 84.0321C331.16 84.3957 331.08 84.8198 330.898 85.4054C330.071 84.5673 329.265 83.7494 328.458 82.9416C327.974 83.4061 327.369 83.9817 326.764 84.5471C326.159 85.1126 325.655 85.9204 324.697 85.7386C324.808 85.1126 324.909 84.5269 325.02 83.8706C323.659 83.5374 322.409 83.2243 320.947 82.8608C321.39 82.7296 321.632 82.6589 321.955 82.568C321.693 81.9318 321.31 81.639 320.826 81.8309C320.17 82.0934 319.656 81.8612 319.162 81.3664C318.416 80.6293 317.599 80.1143 316.611 80.3162C316.188 80.4071 315.774 80.6293 315.381 80.9019C313.526 80.1951 311.6 79.5589 309.574 79.4074C308.455 79.3267 307.356 79.2661 306.277 78.5491C305.51 78.0342 304.472 78.0544 303.544 77.9635C302.637 77.8726 301.719 77.913 300.802 77.9534C300.469 77.9635 300.136 78.1351 299.804 78.2462C299.753 78.2664 299.693 78.3371 299.653 78.327C298.705 77.7716 297.999 78.8824 297.112 78.8824C296.224 78.8925 295.337 79.2762 294.46 79.2459C293.875 79.2257 293.28 78.8117 292.706 78.5189C292.222 78.2664 291.778 78.125 291.365 78.6804C291.294 78.7713 291.183 78.8521 291.082 78.8723C290.296 78.9833 290.155 79.7205 289.903 80.4576C289.661 81.1745 289.247 81.8208 288.864 82.467C288.602 82.9012 288.31 82.7699 287.947 82.5074C287.503 82.1944 286.969 82.0732 286.475 81.8814C286.364 81.841 286.152 81.8309 286.142 81.7703C286.122 81.5986 286.162 81.4169 286.213 81.2452C286.233 81.1644 286.344 81.1341 286.394 81.0533C286.596 80.7807 286.797 80.498 286.989 80.2153C286.616 80.084 286.233 79.8618 285.85 79.8416C285.134 79.771 284.287 79.771 283.45 79.8416C283.097 79.8719 282.764 80.1446 282.351 80.3465C281.938 80.1749 281.423 79.9729 280.768 79.7003C280.405 80.1749 279.931 80.7807 279.427 81.4371C279.397 81.2755 279.296 81.0634 279.346 80.9423C279.75 79.9123 279.296 79.9123 278.651 80.0133C277.652 80.1547 276.654 80.2152 275.656 80.3364C275.434 80.3667 275.212 80.5283 275.001 80.6192C274.829 80.6898 274.648 80.8312 274.487 80.8009C273.589 80.6393 272.692 80.4273 271.714 80.2153C271.714 80.6192 271.714 80.8817 271.714 81.4573C271.21 81.0533 270.847 80.7605 270.373 80.3869C270.201 80.4576 269.879 80.5788 269.546 80.6898C269.465 80.7201 269.314 80.7403 269.284 80.6898C268.83 79.9123 268.719 80.6394 268.477 80.9726C268.003 80.1951 267.741 80.599 267.58 81.2957C266.572 80.5384 265.553 80.4778 264.586 80.9221C264.626 81.3361 264.656 81.6794 264.696 82.0227C264.434 81.7299 264.182 81.427 263.88 81.0937C263.799 81.1947 263.658 81.3765 263.527 81.5582C262.146 80.6393 260.815 81.7097 259.474 81.6895C259.403 81.427 259.353 81.2048 259.292 80.9928C259.121 81.0634 258.939 81.0937 258.798 81.2048C258.445 81.4775 258.123 81.7905 257.78 82.0934C257.719 81.9722 257.649 81.841 257.588 81.7198C257.871 81.5683 258.153 81.427 258.435 81.2755C258.435 81.2149 258.445 81.1442 258.445 81.0836C257.81 81.0231 257.165 80.9726 256.53 80.912C256.52 81.013 256.52 81.1038 256.509 81.2048C256.772 81.4472 257.034 81.6794 257.276 81.952C257.296 81.9823 257.175 82.2045 257.034 82.5175C256.318 81.7299 255.723 80.9019 254.987 80.3364C254.453 79.9224 253.747 79.8517 253.061 79.6195C253.162 81.2452 252.023 80.6797 251.468 81.124C251.347 81.225 251.085 81.2452 251.065 81.3462C250.783 82.8507 249.744 82.8608 248.806 82.9921C248.151 83.083 247.486 83.0123 246.83 83.0426C245.479 83.1133 244.128 83.2041 242.787 83.2849C242.757 83.3657 242.717 83.4465 242.686 83.5374C243.17 83.7797 243.654 84.0221 244.34 84.3553C243.584 84.3553 243.009 84.3654 242.444 84.3553C241.86 84.3452 241.809 84.2038 242.273 83.2849C241.678 83.2142 241.184 83.1537 240.609 83.083C240.74 83.6282 240.821 83.9312 240.892 84.2442C240.74 84.2543 240.478 84.3149 240.458 84.2644C240.337 83.8908 240.277 83.497 240.146 82.9214C237.211 83.0527 234.177 83.194 231.142 83.3354C231.011 83.3455 230.829 83.4364 230.749 83.3657C229.64 82.4064 228.49 82.9214 227.31 83.083C226.05 83.2546 224.76 83.1436 223.479 83.194C222.461 83.2344 221.453 83.3152 220.434 83.3758C220.162 83.396 219.89 83.4566 219.618 83.4364C218.156 83.3455 216.704 83.2445 215.242 83.1335C215.121 83.1234 215 83.0325 214.879 82.8305C215.736 82.7598 216.583 82.6892 217.49 82.6084C217.45 82.1035 217.42 81.6693 217.379 81.0433C216.905 81.3866 216.552 81.639 216.189 81.9016C215.161 80.7403 213.739 80.912 212.862 82.3458C212.247 83.3455 212.177 83.3859 211.33 83.0628C211.914 82.5983 212.257 82.0429 211.743 81.1543C211.37 81.3563 210.967 81.5784 210.503 81.8309C210.493 81.8208 210.251 81.5279 210.18 81.5885C208.759 82.6084 207.115 81.8309 205.653 82.4165C205.462 82.4872 205.31 82.6791 205.169 82.78C205.562 83.1234 205.845 83.4465 206.167 83.608C206.329 83.6888 206.621 83.4869 206.803 83.3354C207.317 82.9113 207.801 82.7195 208.285 83.3152C207.771 83.5576 207.246 83.7191 206.793 84.0321C205.895 84.6683 204.978 84.1533 204.07 84.2644C203.294 84.3553 202.518 84.5269 201.741 84.5875C201.499 84.6077 201.076 84.4461 201.015 84.2543C200.672 83.0628 199.906 83.4768 199.241 83.4566C198.515 83.4364 197.708 83.6585 197.345 82.5781C196.861 82.6993 196.387 82.8305 195.914 82.9416C195.793 82.9719 195.631 83.0527 195.551 82.9921C194.593 82.2752 193.655 82.669 192.687 82.9618C192.304 83.0729 191.87 82.9214 191.457 82.8608C190.58 82.7295 189.703 82.5781 188.805 82.6589C189.551 83.2243 190.298 83.7797 191.084 84.3755C190.983 85.1126 190.64 85.5064 190.005 85.5266C189.279 85.5569 188.503 85.4256 187.827 85.668C186.628 86.1021 185.539 85.3751 184.369 85.4761C182.736 85.6276 181.082 85.4357 179.439 85.5064C178.632 85.5468 177.846 85.9911 177.039 86.0315C175.89 86.0921 174.73 85.9507 173.571 85.9204C173.248 85.9103 172.915 86.0719 172.603 86.0214C171.907 85.9103 171.1 86.1829 170.586 85.2842C170.566 85.2439 170.435 85.3044 170.274 85.3246C170.415 85.5771 170.516 85.7891 170.627 85.9911C170.596 86.0517 170.566 86.1123 170.536 86.1627C169.911 85.8699 169.276 85.5973 168.66 85.2741C168.56 85.2237 168.509 84.9409 168.489 84.7592C168.358 83.5677 167.743 83.2243 166.876 83.7595C166.563 83.9514 166.14 83.8908 165.767 83.911C165.303 83.9413 164.819 83.8403 164.375 83.9615C163.982 84.0624 163.438 84.3048 163.317 84.6582C163.206 84.9813 163.559 85.5468 163.71 86.0113C163.77 86.1829 163.841 86.3445 163.922 86.5666C161.462 86.5666 159.072 86.5666 156.572 86.5666C156.572 86.2132 156.572 85.7285 156.572 85.0924C155.805 85.0924 154.989 85.0924 154.162 85.0924C154.152 84.9712 154.142 84.8501 154.132 84.7289C154.424 84.6582 154.716 84.5976 155.241 84.4663C154.948 84.2644 154.777 84.0523 154.605 84.0523C153.779 84.0826 152.942 84.0927 152.135 84.2644C151.268 84.4461 150.895 83.6888 150.3 83.1738C150.149 83.4667 149.978 83.81 149.897 83.9615C149.413 83.9615 149.09 83.9816 148.758 83.9514C148.102 83.8908 147.437 83.7292 146.781 83.7494C145.904 83.7797 145.027 83.9413 144.16 84.0422C144.009 84.0624 143.857 84.1028 143.716 84.0725C142.688 83.911 141.619 83.4263 140.651 83.6484C139.663 83.8807 138.867 83.497 137.979 83.3657C137.768 83.3354 137.546 83.3758 137.344 83.4263C136.82 83.5475 136.286 83.7292 135.892 82.7699C135.741 83.1234 135.64 83.3657 135.549 83.5878C134.793 82.9315 134.239 82.4165 133.432 83.396C133.13 83.7595 132.303 83.4869 131.708 83.497C130.216 83.5172 128.724 83.5273 127.231 83.5273C127.05 83.5273 126.868 83.497 126.637 83.4768C126.637 83.7292 126.637 83.9716 126.637 84.224C125.81 83.0931 124.933 82.6791 123.864 83.7494C123.531 83.5777 123.118 83.3455 122.704 83.1234C121.958 82.2752 121.222 81.9823 120.94 82.4569C119.428 81.9015 117.996 81.3765 116.554 80.8413C115.737 80.5384 114.941 80.1042 114.104 79.9325C113.519 79.8113 112.874 80.0234 112.269 80.1446C112.128 80.1749 112.007 80.4071 111.785 80.6595C112.138 80.7504 112.36 80.811 112.612 80.8817C112.602 81.0029 112.632 81.2149 112.592 81.2351C112.077 81.4774 111.573 81.8208 111.039 81.8813C110.121 81.9823 109.184 81.9116 108.206 81.9116C107.954 80.8817 107.268 81.124 106.653 81.1139C106.018 81.1038 105.282 81.3765 104.949 80.2859C104.677 80.3768 104.395 80.5586 104.122 80.5586C103.366 80.5485 102.61 80.4273 101.854 80.4071C101.531 80.397 101.168 80.4273 100.896 80.5989C100.402 80.9221 100.029 80.7706 99.5247 80.5687C98.7685 80.2758 97.9215 80.3061 97.0847 80.3364C97.8005 80.9524 98.7382 81.0735 99.1718 82.4266C98.96 83.3859 98.0022 83.0628 97.2561 83.2344C96.6915 83.3556 96.1067 83.4364 95.532 83.4667C95.29 83.4768 95.0379 83.2041 94.7859 83.2041C93.8079 83.1738 92.8299 83.2142 91.8619 83.2142C91.0352 83.2142 90.2084 83.1133 89.3816 83.1839C88.444 83.2647 87.5164 83.5777 86.5686 83.6383C85.5503 83.6989 84.5219 83.5878 83.4935 83.5576C83.1708 83.5474 82.8381 83.6181 82.5155 83.5878C81.9105 83.5374 81.2148 83.7595 80.8014 82.9315C80.7913 82.9113 80.6502 82.9719 80.5191 83.0123C80.63 83.2142 80.7308 83.3859 80.8216 83.5576C80.7913 83.6282 80.7611 83.6888 80.7308 83.7595C80.1057 83.4566 79.4705 83.1637 78.8454 82.8608C78.8555 82.7699 78.8757 82.6791 78.8857 82.5882C80.4687 82.4973 82.0517 82.4064 83.7455 82.3054C83.433 81.5784 83.2212 81.225 82.5558 81.4875C81.9811 81.7097 81.3257 81.6188 80.7107 81.6794C80.1259 81.74 79.5411 81.841 78.8555 81.9318C78.5631 81.4169 78.2505 80.5182 77.4238 81.5986C77.2524 81.8208 76.6877 81.6087 76.3147 81.5986C76.0727 81.5885 75.8207 81.5683 75.5787 81.5885C74.4898 81.6996 73.7336 82.1338 74.7217 83.7797C74.7721 83.8706 74.762 84.0119 74.7721 84.1432C72.5741 84.1432 70.4265 84.1432 68.1781 84.1432C68.1983 83.7898 68.2184 83.3556 68.2487 82.8103C67.5631 82.7699 66.8573 82.7295 66.1414 82.6892C66.1313 82.5983 66.1112 82.4973 66.1011 82.4064C66.7867 82.3054 67.4723 82.2045 68.168 82.0934C68.1781 82.0126 68.1882 81.9318 68.1983 81.8511C67.2203 81.6087 66.2423 81.3765 65.1534 81.1038C64.6392 81.639 63.1974 81.639 62.8848 81.1543C62.0782 81.2856 61.3825 81.4371 60.6767 81.5077C59.608 81.6087 58.5291 81.7097 57.4604 81.6895C56.4421 81.6693 55.4237 81.3967 54.4054 81.4371C53.3568 81.4774 52.3284 81.6289 51.3706 80.9625C51.3202 80.9322 51.1992 81.0432 51.1286 81.0937C50.6245 81.4875 50.1808 81.4572 49.717 80.6191C49.6162 80.9221 49.5355 81.1745 49.465 81.4068C48.7592 80.6797 48.2349 80.2657 47.5392 81.1644C47.3275 81.4371 46.7628 81.3159 46.3495 81.3159C44.6959 81.326 43.0424 81.326 41.3485 81.326C41.3788 81.5582 41.409 81.7905 41.4494 82.1035C40.7738 80.7706 39.574 80.5687 39.0699 81.4472C38.6061 81.3462 38.1725 81.3462 37.8197 81.1543C37.4668 80.9625 37.1844 80.5687 36.8719 80.2758C36.7912 80.195 36.6501 80.0638 36.5896 80.1042C35.4805 80.6696 34.8655 79.2964 33.9379 79.1449C33.8169 79.1247 33.6959 79.1045 33.585 79.0641C32.4961 78.5794 31.3971 78.0846 30.3183 77.5798C30.2174 77.5293 30.1569 77.3475 29.9351 77.0244C31.8911 77.6302 33.6455 78.2563 35.42 78.7107C37.2349 79.1752 39.08 79.4781 40.8545 79.9325C41.3586 79.8517 41.8628 79.7407 42.377 79.7003C43.1937 79.6296 44.0103 79.6296 44.8169 79.5286C45.0791 79.4983 45.311 79.2358 45.5429 79.0944C44.0305 78.7713 42.5584 78.4381 41.0763 78.1452C39.9673 77.9332 38.8582 77.812 37.7491 77.5798C36.8416 77.3879 35.9544 77.1254 35.0671 76.8325C34.9462 76.7921 34.9058 76.4185 34.7949 76.0651C34.6235 76.3378 34.5126 76.5195 34.321 76.8123C34.1597 75.8228 34.0186 74.9241 33.8673 73.9547C34.2202 73.7427 34.4017 73.5306 33.9681 72.9248C33.6253 72.4502 33.5648 71.6828 32.9901 71.3798C32.5969 71.1779 32.2138 70.9658 31.8407 70.7235C31.5383 70.5316 31.266 70.2893 30.893 69.9965C30.8325 70.0469 30.6712 70.1782 30.4493 70.3499C30.4493 69.6127 30.6207 68.8756 30.409 68.3707C30.1569 67.7548 29.4108 67.9264 29.1487 68.3808C28.1001 68.1183 27.1322 67.8861 26.0634 67.6134C26.0534 67.6639 25.9626 67.9567 25.9122 68.1385C25.6299 68.2496 25.398 68.3404 25.0955 68.4616C24.5914 67.7952 25.4081 67.7245 25.7509 67.0883C25.2972 67.0379 24.9846 66.9975 24.541 66.947C24.3091 66.0685 22.6858 66.7753 22.8975 64.7356C22.3632 65.2607 22.0607 65.5535 21.7582 65.8564C21.7078 66.018 21.6574 66.1897 21.617 66.3512C21.4356 66.0079 21.2541 65.6747 20.9919 65.1799C21.3347 65.0688 21.5162 65.0082 21.9196 64.877C21.0323 64.3721 20.3063 63.9581 19.5602 63.5441C19.6913 63.12 19.8123 62.7666 19.9333 62.3728C19.6611 62.2011 19.4291 62.0698 19.1569 61.8982C19.0763 62.0799 18.9855 62.2718 18.8847 62.4939C18.8242 62.393 18.794 62.3223 18.7436 62.2516C18.6024 62.0294 18.4512 61.5952 18.3302 61.6053C17.6143 61.6861 17.5135 61.0096 17.3017 60.4744C17.0799 59.919 16.9489 59.2627 16.2128 59.4546C16.0919 59.4848 15.8196 59.1617 15.7692 58.9497C15.5272 57.8894 15.013 57.8288 14.3072 58.2731C14.1862 58.3438 13.9947 58.2529 13.8333 58.2428C13.9342 58.5559 14.0552 58.8487 14.0955 59.1718C14.1056 59.2425 13.8132 59.3738 13.6115 59.505C13.4502 58.9699 13.6519 58.0409 12.6941 58.4852C12.805 58.8184 12.9158 59.1415 13.1175 59.7474C12.7646 59.3839 12.4621 59.2324 12.4016 58.9901C12.2101 58.2125 11.7967 58.0712 11.2119 58.1621C9.81045 58.3842 8.41906 58.4751 7.01758 58.1116C6.28155 57.9197 5.46484 58.051 4.75909 57.7784C4.19446 57.5562 3.73068 56.9503 3.22656 56.5161C3.27698 56.4253 3.31732 56.3445 3.36773 56.2536C3.95251 56.3041 4.53729 56.3243 5.12207 56.395C6.44287 56.5565 7.7536 56.7686 9.06433 56.92C10.3751 57.0715 11.6858 57.2028 12.9965 57.2735C13.2082 57.2836 13.5107 56.9503 13.6418 56.6878C13.7325 56.4959 13.672 56.0819 13.551 55.8901C13.3695 55.6175 13.0973 55.4155 12.8251 55.264C12.3411 55.0015 11.7664 54.9106 11.343 54.5572C10.9195 54.2139 10.6271 53.6282 10.3448 53.2344C10.496 52.9113 10.7683 52.5983 10.7179 52.3862C10.6473 52.053 10.4456 51.7097 9.99191 52.0126C9.84067 52.1136 9.45755 51.6996 9.10467 51.4673C8.98367 51.639 8.8425 51.8511 8.67111 52.0934C7.99557 51.5885 7.35031 50.9423 6.61429 50.6191C5.79761 50.2556 4.90027 50.1547 4.02307 50.0032C3.1459 49.8517 2.25863 49.7608 1.38147 49.6498C1.17981 49.6195 0.968046 49.6599 0.756315 49.6296C0.524412 49.5993 0.292539 49.5387 0.0606669 49.4882C0.0606669 49.3569 0.0707072 49.2257 0.0707072 49.0944C0.615171 49.0944 1.15964 49.0843 1.70407 49.0944C2.33929 49.1045 3.00473 49.2863 3.60968 49.1247C4.04324 49.0136 4.36587 48.4179 4.77926 48.1048C5.03134 47.913 5.37414 47.7009 5.63629 47.7615C6.23117 47.8827 6.61426 47.4889 6.71509 46.984C6.84616 46.368 7.14865 46.3882 7.50152 46.2166C7.82416 46.0651 8.07623 45.6915 8.36865 45.4189C8.01575 45.227 7.66287 44.8938 7.29989 44.8736C6.82602 44.8534 6.34204 45.2068 5.86816 45.1866C5.18255 45.1664 4.50705 44.9544 3.83151 44.5808C4.26504 44.5808 4.68851 44.5808 5.12207 44.5808C5.35397 43.6619 5.35394 43.6619 3.8819 43.3791C4.29529 43.2681 4.70868 43.157 5.18255 43.0257C5.16238 42.7632 5.13217 42.5209 5.10193 42.1069C5.94885 42.1069 6.74536 42.1069 7.54187 42.1069C7.67294 42.1069 7.8746 42.1472 7.93509 42.0665C8.79211 40.9052 10.1533 41.0668 11.1716 40.1479C11.0909 39.4007 11.2623 39.0372 12.1193 38.9665C13.0066 38.8958 13.8737 38.3102 14.7408 37.9062C14.8114 37.876 14.7912 37.573 14.8013 37.5427C14.2468 37.4519 13.7628 37.3105 13.2687 37.3206C12.8755 37.3206 12.4823 37.5427 12.0891 37.6033C11.6152 37.674 11.1312 37.7346 10.6573 37.6639C9.86084 37.5528 9.12482 37.5225 8.81228 38.3101C8.14682 38.3101 7.6427 38.3101 7.09823 38.3101C7.09823 38.1082 7.09823 37.8659 7.09823 37.6336C8.29806 37.2903 9.47772 36.9773 10.6473 36.6037C10.7885 36.5633 10.8489 36.1796 11.0002 35.8564C11.1413 36.1695 11.2825 36.4825 11.4438 36.8258C12.0487 36.6138 12.6739 36.4219 13.2788 36.1493C13.4301 36.0786 13.5006 35.7656 13.6015 35.5636C13.42 35.5636 13.2385 35.5232 13.0771 35.5838C12.8049 35.6949 12.5428 35.8665 12.2807 36.0079C12.2101 35.9372 12.1395 35.8665 12.079 35.7958C12.3512 35.2506 12.6134 34.7053 12.9058 34.1095C13.0167 34.2509 13.1175 34.3822 13.2486 34.5639C13.3494 34.3418 13.4402 34.1499 13.5006 33.9985C13.9543 34.0793 14.3677 34.1499 14.9929 34.2509C14.7408 33.7864 14.5996 33.5138 14.408 33.1604C14.5593 33.0998 14.7408 33.0796 14.7912 32.9786C14.8719 32.7969 14.9223 32.5444 14.8819 32.3526C14.8416 32.1607 14.6702 32.0193 14.5492 31.8578C14.7408 31.8073 14.9323 31.7568 15.134 31.7265C15.3155 31.6962 15.5272 31.7467 15.6684 31.6558C15.8196 31.5448 15.9104 31.3125 16.0314 31.1307C15.8902 31.0197 15.7591 30.8985 15.618 30.7975C15.4163 30.6562 15.2147 30.535 14.8719 30.3128C15.6684 30.1008 16.2632 29.9392 16.8682 29.7676C16.8581 29.6464 16.848 29.5252 16.838 29.4041C16.6161 29.2829 16.3842 29.1718 16.1624 29.0506C16.1624 28.9699 16.1523 28.879 16.1523 28.7982C16.8984 28.6871 17.6446 28.6366 18.3806 28.4448C18.7839 28.3438 19.1468 28.0106 19.5199 27.7884C20.3366 27.3139 21.1835 26.9099 21.9599 26.3344C22.3228 26.0617 22.4539 25.3347 22.8169 25.0722C23.5025 24.5673 24.2788 24.2139 25.0249 23.8302C26.3458 23.1637 27.7069 22.6185 28.9773 21.8409C29.9452 21.2351 30.893 20.5081 31.5483 19.3468C31.6996 19.0843 32.1432 19.0742 32.4154 18.8924C32.6574 18.7309 32.9599 18.5188 33.0507 18.2361C33.1212 18.014 32.97 17.5192 32.7986 17.398C32.5969 17.2566 32.2239 17.2768 31.992 17.398C31.2055 17.8221 30.4493 18.3472 29.673 18.8016C28.8966 19.2459 28.1001 19.6599 27.1826 20.1546C27.2935 19.9022 27.3238 19.7406 27.3943 19.67C28.1001 18.9934 29.1084 19.0035 29.6629 17.812C29.9452 17.2061 31.0341 17.2465 31.6492 16.7719C33.3329 15.4795 35.3999 15.7521 37.0836 14.5101C37.0836 14.6716 37.0736 14.8332 37.0736 14.9948C37.4869 15.1866 37.8902 15.5198 38.3137 15.54C38.7271 15.5602 39.1405 15.2068 39.5639 15.1361C40.058 15.0554 40.5621 15.126 41.0662 15.1159C41.3586 15.1159 41.6611 15.0856 41.9535 15.0554C42.508 14.9948 43.0626 14.9443 43.607 14.8534C45.1698 14.5808 46.7225 14.3081 48.2752 14.0052C49.0516 13.8537 49.8279 13.6619 50.5841 13.3085C48.6886 12.4098 46.7427 13.6114 44.8774 13.0055C46.168 12.7733 47.4586 12.5713 48.739 12.2886C49.7876 12.0564 50.816 11.7029 51.8545 11.4707C52.2377 11.3899 52.641 11.5212 53.0342 11.501C53.4274 11.4808 53.8206 11.4101 54.2138 11.3596C54.476 12.7228 55.9279 12.9349 57.9343 11.9857C57.41 11.7332 57.047 11.5515 56.6538 11.3596C56.8655 11.0769 57.0773 10.7841 57.2991 10.5013C57.2688 10.4004 57.2386 10.2994 57.2184 10.1984C56.6739 10.1984 56.1295 10.1984 55.5851 10.1984C55.5851 10.0873 55.5952 9.97625 55.5952 9.86518C56.3513 9.86518 57.1075 9.86518 57.8435 9.86518C57.7629 10.1176 57.6721 10.4306 57.6016 10.6326C58.0351 10.8043 58.3275 10.9961 58.63 11.0365C59.1039 11.1072 59.5878 11.0971 60.0617 11.0769C60.3037 11.0668 60.5658 10.885 60.7876 10.9456C61.3926 11.1274 61.7152 10.8043 61.9169 9.93586C62.2395 11.4101 63.1268 11.5111 63.9636 11.5515C64.8307 11.5818 65.7079 11.4404 66.575 11.3091C66.7565 11.2788 66.9077 10.9557 67.0691 10.774C66.9077 10.6629 66.7363 10.4508 66.575 10.4407C65.4458 10.4105 64.3165 10.4205 63.1873 10.4205C63.2578 9.61274 63.399 9.46128 64.1048 9.85508C64.992 10.3398 65.7885 10.0469 66.8976 9.65313C66.4338 9.3805 66.1818 9.13815 65.9096 9.08766C65.0727 8.9261 64.2358 8.75444 63.399 8.72415C62.2093 8.68376 61.0195 8.74435 59.8298 8.79483C58.1158 8.86552 56.3816 8.89581 54.6776 9.09776C52.3586 9.3704 50.0497 9.7945 47.7408 10.1277C47.3577 10.1883 46.9544 10.1378 46.5713 10.1378C46.5612 10.057 46.5612 9.97625 46.5511 9.89547C46.8637 9.86518 47.2267 9.93586 47.4989 9.7844C48.2954 9.3401 49.1927 8.96649 49.8078 8.25966C50.6446 7.30039 51.5823 7.53263 52.2982 7.94663C53.1048 8.41112 53.8509 8.23946 54.6071 8.21927C56.4118 8.16878 58.2166 7.95673 60.0214 7.83556C62.058 7.69419 64.0947 7.58312 66.1314 7.43166C66.4238 7.41146 66.696 7.16912 66.9884 7.12873C67.2606 7.08834 67.553 7.13882 67.8152 7.2297C68.5108 7.46195 69.1964 7.93654 69.8922 7.94663C71.3037 7.97693 72.7253 7.79517 74.1369 7.62351C74.6007 7.56293 75.0443 7.11863 75.498 7.09843C76.5264 7.04795 77.5548 7.16912 78.5833 7.19941C78.8958 7.20951 79.2084 7.12873 79.5713 6.86619C79.3899 6.71473 79.1378 6.37141 79.0269 6.43199C78.3413 6.8056 77.7767 6.24014 77.1617 6.14926C76.4357 6.04828 76.1837 5.57369 76.1736 4.64471C77.3936 4.82647 78.5833 5.00823 79.7327 5.17989C79.7831 5.90692 79.8335 6.52287 79.8839 7.16912C80.9426 7.2297 81.9206 7.30039 82.9087 7.32058C83.0801 7.32058 83.3725 7.10853 83.3926 6.94697C83.4229 6.71473 83.2817 6.43199 83.1809 6.19975C83.0599 5.92711 82.9087 5.68477 82.7675 5.43233C83.0297 5.34145 83.2918 5.16979 83.554 5.15969C84.9252 5.1193 86.2964 5.06882 87.6575 5.1395C88.2927 5.16979 88.9683 5.35155 89.553 5.67467C90.0975 5.9675 89.7849 6.44209 89.4623 6.75512C89.0792 7.12873 88.6658 7.45185 88.2927 7.94663C91.015 8.05771 93.6869 8.88571 96.3688 8.22937C96.389 8.088 96.4091 7.94663 96.4293 7.80527C95.5522 7.46195 94.675 7.11863 93.697 6.73492C93.5457 6.03819 93.7071 5.72516 94.8968 5.77565C97.2964 5.87662 99.696 6.03819 102.086 6.21994C102.519 6.25024 102.943 6.54307 103.427 6.74502C103.275 7.01765 103.235 7.15902 103.185 7.15902C101.461 7.26 99.7364 7.36097 98.0123 7.44175C97.5384 7.46195 96.631 8.20917 96.5806 8.5222C99.2323 8.9261 101.884 9.34011 104.536 9.72382C105.675 9.89547 106.845 10.2085 107.964 10.057C108.72 9.95606 109.446 9.94596 110.202 9.94596C110.515 9.94596 110.837 9.76421 111.079 9.68343C111.624 9.7743 112.148 10.0065 112.612 9.89548C113.368 9.72382 114.043 9.95606 114.759 10.0368C115.657 10.1378 116.645 9.90557 117.512 9.52186C118.611 9.02708 119.659 8.70396 120.829 8.97659C121.051 9.02708 121.323 8.79484 121.716 8.63327C122.412 9.3603 123.309 9.09776 124.227 8.49191C123.813 8.45152 123.38 8.47171 122.987 8.34044C122.664 8.22937 122.039 8.58279 122.049 7.71439C123.219 7.47205 124.338 7.2398 125.447 6.99746C125.527 6.97727 125.628 6.91668 125.679 6.95707C126.586 7.54273 127.534 7.31049 128.663 7.07824C128.411 8.13849 128.199 9.05737 127.957 10.0671C127.201 9.26942 126.425 9.26942 125.558 9.8046C125.165 10.0469 124.681 10.1479 124.176 9.96616C123.914 9.87528 123.571 10.1075 123.279 10.259C127.514 11.1577 131.728 11.5616 135.791 9.86518C136.003 9.51177 136.165 8.9665 136.386 8.9362C136.648 8.90591 136.941 9.31991 137.233 9.52186C137.485 9.68343 137.747 9.8046 138.242 10.0671C138.605 10.9052 139.714 11.3899 140.732 10.986C141.135 10.8245 141.569 10.7538 141.982 10.6427C142.012 10.5518 142.043 10.4609 142.073 10.3701C141.528 10.1479 140.994 9.92577 140.51 9.72382C140.833 9.47138 141.176 9.20884 141.518 8.9463C141.478 8.81503 141.448 8.67367 141.407 8.5424C140.782 8.5424 140.157 8.5424 139.522 8.5424C139.522 8.42123 139.532 8.31015 139.532 8.18898C140.399 8.18898 141.256 8.18898 142.184 8.18898C142.043 8.39093 141.912 8.60298 141.569 9.10786C142.698 9.25933 143.616 9.42089 144.543 9.49157C144.977 9.53196 145.42 9.42089 145.854 9.3603C146.671 9.24923 146.408 8.5222 146.358 7.77498C146.61 8.27986 146.781 8.63327 146.953 8.98669C147.81 8.5121 148.485 7.80527 149.564 8.35054C150.209 8.67367 151.087 8.31015 151.863 8.24957C151.883 8.12839 151.903 7.99713 151.924 7.87595C151.641 7.71439 151.369 7.44176 151.077 7.39127C150.058 7.20951 149.03 7.03785 148.001 6.98736C147.144 6.94697 146.287 7.09844 145.43 7.12873C145.037 7.14893 144.634 7.07824 144.241 7.08834C143.222 7.10853 142.214 7.13883 141.196 7.19941C139.865 7.28019 138.544 7.39127 137.243 7.49224C137.183 7.76488 137.122 8.05771 137.052 8.36064C136.84 8.22937 136.628 8.0981 136.407 7.95673C136.205 7.82547 135.983 7.57302 135.791 7.59322C134.985 7.6942 134.188 7.87595 133.331 8.04761C133.402 8.502 133.462 8.81503 133.523 9.20884C133.099 9.24923 132.706 9.27952 132.273 9.31991C132.394 8.86552 132.474 8.5424 132.605 8.06781C131.506 8.31015 130.448 8.20917 130.135 9.91567C130.034 9.81469 129.923 9.72382 129.823 9.62284C129.893 9.29972 129.974 8.9665 130.034 8.64337C130.105 8.25966 130.165 7.87595 130.246 7.36098C130.599 8.27986 131.093 8.02742 131.547 7.6942C132.182 7.22971 132.797 6.71473 133.412 6.20985C134.219 5.5535 135.166 5.79585 135.832 6.18965C136.719 6.71473 137.546 6.50268 138.383 6.48248C140.429 6.432 142.476 6.23004 144.523 6.08868C146.771 5.93721 149.03 5.79585 151.278 5.63428C151.54 5.61409 151.792 5.44243 152.055 5.34145C152.448 5.17989 152.74 5.09911 153.164 5.49292C154.132 6.39161 155.352 6.26034 156.491 6.23004C157.741 6.18965 158.991 5.9978 160.242 5.83624C160.443 5.80594 160.615 5.53331 160.816 5.49292C161.29 5.40204 161.784 5.38184 162.268 5.46263C163.357 4.60433 164.567 5.74536 165.716 5.29097C165.797 4.61443 165.595 4.60433 165.031 4.58413C164.214 4.55384 163.387 4.22062 162.601 3.8773C162.409 3.79652 162.359 3.21086 162.198 2.68578C163.68 2.89783 165.001 3.07959 166.301 3.26135C166.352 5.38184 166.352 5.38184 168.045 5.42223C168.65 5.44243 169.245 5.52321 169.85 5.49292C170.052 5.48282 170.354 5.29097 170.405 5.09911C170.455 4.90726 170.284 4.59423 170.173 4.36199C170.022 4.04896 169.83 3.77632 169.659 3.48349C169.961 3.40271 170.254 3.27144 170.556 3.26135C172.078 3.21086 173.601 3.14017 175.123 3.20076C175.839 3.23105 176.595 3.4633 177.251 3.80662C177.795 4.08935 177.473 4.58413 177.15 4.88706C176.747 5.26067 176.313 5.5737 175.89 5.91702C175.89 6.01799 175.89 6.12907 175.89 6.23004C176.878 6.31083 177.856 6.38151 178.844 6.46229C179.923 6.55317 181.001 6.69453 182.08 6.70463C183.028 6.71473 183.986 6.58346 184.934 6.51278C184.944 6.34112 184.954 6.16946 184.974 5.9978C183.966 5.63429 182.957 5.28087 181.869 4.89716C181.778 4.05906 181.919 3.81672 182.907 3.85711C184.621 3.91769 186.335 4.07925 188.059 4.18023C189.118 4.24082 190.187 4.22062 191.235 4.34179C191.618 4.37208 192.092 4.68511 192.697 4.92745ZM122.17 80.9322C122.16 80.9827 122.16 81.0432 122.15 81.0937C123.45 81.4169 124.751 81.74 126.082 82.0732C126.415 81.9823 126.818 81.8107 127.231 81.7804C127.796 81.74 128.371 81.8208 128.945 81.8511C129.873 81.8813 130.639 81.5784 131.083 80.9322C128.068 80.9322 125.114 80.9322 122.17 80.9322ZM116.917 79.4175C116.907 79.5185 116.907 79.6094 116.897 79.7104C118.853 80.6292 120.849 80.7605 122.926 80.0941C122.402 79.7609 121.857 79.4781 121.303 79.3065C120.426 79.0439 119.518 78.4482 118.772 79.7205C118.52 80.1446 118.097 80.2253 117.986 79.4579C117.956 79.2863 117.905 79.1146 117.865 78.9227C117.502 79.1146 117.209 79.2661 116.917 79.4175ZM180.265 83.4869C180.417 84.325 180.901 84.4461 181.485 84.325C182.171 84.1735 182.847 83.9615 183.532 83.7999C184.097 83.6585 184.672 83.5475 185.246 83.4263C184.278 82.3559 182.06 82.4973 180.265 83.4869ZM89.5027 81.225C89.7849 81.9217 90.158 82.1439 90.6823 81.9924C91.2872 81.8208 91.8922 81.639 92.4972 81.4875C93.0113 81.3563 93.5356 81.2553 94.0599 81.1442C94.0398 80.9827 94.0196 80.8211 93.9994 80.6595C92.5173 80.3566 91.0453 80.1648 89.5027 81.225ZM168.58 84.3048C168.59 84.436 168.59 84.5673 168.6 84.6986C168.983 84.8198 169.487 85.1833 169.719 85.0015C170.546 84.3755 171.353 84.6582 172.199 84.7289C172.693 84.7693 173.208 84.6481 173.712 84.5976C173.732 84.4562 173.752 84.3149 173.772 84.1735C173.43 83.9918 173.087 83.6383 172.744 83.6383C171.726 83.6484 170.707 83.7797 169.699 83.9211C169.306 83.9716 168.943 84.1735 168.58 84.3048ZM152.307 9.16845C150.744 8.81503 149.252 8.81503 147.669 9.04728C148.243 10.2489 151.51 10.2792 152.307 9.16845ZM16.8682 35.6343C17.3622 35.3616 17.7655 35.0991 18.189 34.9073C18.7234 34.675 18.7234 34.3822 18.3604 33.9278C17.7151 33.12 17.3824 33.0695 16.6666 33.7359C16.4649 33.9278 16.2532 34.1196 16.0515 34.3216C16.1422 34.7659 16.233 35.1799 16.2733 35.3717C16.5758 35.5131 16.7674 35.5939 16.8682 35.6343ZM14.7711 35.604C14.5996 36.0786 14.4786 36.4118 14.3577 36.7551C14.4081 36.8359 14.4585 36.9066 14.5089 36.9874C15.0433 36.8056 15.6785 36.7551 16.0616 36.3613C16.2229 36.1997 15.87 35.2809 15.7491 34.7053C15.6684 34.7356 15.5877 34.7659 15.507 34.7861C15.4667 35.1395 15.4264 35.503 15.376 35.8564C15.3054 35.8463 15.2348 35.8463 15.1642 35.8362C15.1642 35.5434 15.1642 35.2506 15.1642 34.8972C14.7912 34.988 14.4686 35.0284 14.1661 35.1496C14.0149 35.2102 13.914 35.4121 13.783 35.5434C13.9543 35.6141 14.1257 35.705 14.3072 35.7353C14.4282 35.7454 14.5593 35.6646 14.7711 35.604ZM228.339 80.8514C227.583 80.8009 226.948 80.7605 226.322 80.7201C226.322 80.7706 226.322 80.8312 226.322 80.8817C226.998 81.3058 227.684 81.74 228.52 82.2651C228.44 81.639 228.379 81.1846 228.339 80.8514ZM268.235 80.0537C268.266 79.367 268.276 78.7814 267.681 78.8117C267.429 78.8218 266.965 79.2964 266.985 79.5084C267.076 80.5384 267.731 79.8416 268.235 80.0537ZM257.608 79.6498C257.931 80.6898 258.506 80.8211 259.08 80.0133C258.919 79.7306 258.748 79.4377 258.597 79.1752C258.254 79.3469 257.951 79.4882 257.608 79.6498ZM159.667 8.12839C159.687 7.98703 159.707 7.85576 159.727 7.71439C159.284 7.57303 158.84 7.40137 158.396 7.30039C158.306 7.2802 158.094 7.57303 158.084 7.72449C158.084 7.88605 158.255 8.19908 158.356 8.19908C158.79 8.22937 159.233 8.15869 159.667 8.12839ZM73.6832 9.7844C73.6933 9.66323 73.7134 9.54206 73.7235 9.42089C73.3303 9.27952 72.9371 9.09776 72.5237 9.00688C72.4229 8.98669 72.1708 9.23913 72.1708 9.3704C72.1708 9.55215 72.3321 9.87528 72.433 9.88538C72.8564 9.89547 73.2698 9.82479 73.6832 9.7844ZM262.115 79.4175C262.025 79.4377 261.924 79.4478 261.833 79.468C262.025 79.7609 262.226 80.0436 262.418 80.3364C262.64 79.9123 262.851 79.4983 263.073 79.0742C263.013 79.0338 262.952 79.0035 262.892 78.9631C262.64 79.1146 262.377 79.2661 262.115 79.4175ZM132.374 11.3293C132.353 11.4505 132.343 11.5818 132.323 11.7029C132.888 11.7837 133.452 11.8746 134.007 11.9554C134.017 11.814 134.037 11.6626 134.047 11.5212C133.483 11.4606 132.928 11.3899 132.374 11.3293Z"
              fill="currentColor"/>
        <path d="M7.58193 62.7565C8.27762 62.6252 8.7414 62.5646 9.2052 62.4334C9.44718 62.3627 9.65892 62.1708 9.88074 62.0396C9.69925 61.7972 9.55808 61.4337 9.32618 61.3226C8.52966 60.9187 7.68275 60.6461 6.88623 60.2321C6.28128 59.9191 5.71666 59.4849 5.02096 59.8888C4.96047 59.9191 4.65799 59.5757 4.66807 59.5353C4.74873 59.3132 4.91004 58.98 5.04112 58.98C5.88805 59.0002 6.72491 59.1011 7.51134 59.1718C7.28953 59.5656 7.08789 59.9493 7.87433 60.1513C8.53978 60.323 9.14471 60.8783 9.81015 61.0803C10.4151 61.262 11.0705 61.2317 11.7057 61.2519C12.603 61.2721 13.5004 61.262 14.4481 61.262C14.4179 62.1506 14.5288 62.5848 15.2446 62.3829C15.5874 62.2819 16.0311 62.7161 16.4041 62.6757C17.0998 62.5949 17.7955 62.2011 18.3198 63.1301C18.3601 63.2109 18.6122 63.12 18.7332 63.1099C18.7735 63.4835 18.8138 63.7965 18.8643 64.2509C18.3803 64.2004 17.9064 64.15 17.4325 64.1096C16.6461 64.0389 15.8597 63.9177 15.0732 63.9177C14.8716 63.9177 14.6599 64.2812 14.5187 64.4327C14.3977 64.1701 14.2767 63.8975 14.1557 63.635C13.8432 63.8571 13.5306 64.0692 13.1475 64.3519C12.603 63.534 11.7561 63.7561 10.8587 63.9177C10.1832 64.0389 9.46736 63.9177 8.78175 63.847C7.9449 63.7662 7.11813 63.6148 6.29137 63.5037C5.68642 63.4128 5.08147 63.3219 4.40594 63.2311C5.26296 62.09 7.0778 62.0295 7.58193 62.7565Z"
              fill="currentColor"/>
        <path d="M44.9682 11.5617C44.1011 10.6429 43.2441 11.0468 42.3366 11.5012C41.8124 11.7637 41.1772 11.6728 40.6025 11.8243C38.6061 12.3393 36.6199 12.8744 34.6437 13.4399C32.8692 13.9448 31.1047 14.5203 29.3403 15.0555C30.046 13.9448 31.3366 13.7226 32.2138 12.6321C33.0103 11.6324 34.6235 11.6728 35.7427 10.9458C36.8921 10.2087 38.1726 10.8347 39.4228 10.2087C40.2798 11.0569 41.3082 10.5924 42.1854 9.98652C43.0223 9.41095 43.9599 9.45134 44.8068 9.03734C44.9783 8.95656 45.3614 9.09793 45.432 9.25949C45.5227 9.49174 45.4219 9.84515 45.3614 10.138C45.2404 10.6025 45.0992 11.0468 44.9682 11.5617Z"
              fill="currentColor"/>
        <path d="M6.09977 27.2433C7.47099 26.1123 8.29775 26.2032 8.70105 27.6674C9.08419 27.3644 9.48749 27.1524 9.77989 26.7889C10.2235 26.2234 10.7377 26.7283 11.2015 26.5465C11.746 26.3345 12.3308 26.3042 12.9156 26.1931C13.218 26.7485 13.097 27.2332 12.6534 27.425C11.3528 28.0107 10.0219 28.5055 8.71114 29.0608C8.3885 29.2022 8.05578 29.384 7.80372 29.6566C6.86605 30.6462 5.59566 30.3331 4.56724 30.939C4.37567 31.0501 4.18407 31.2015 3.78077 31.4742C4.48655 31.6256 4.9201 31.7266 5.36373 31.8276C5.37382 31.9589 5.3839 32.0901 5.39398 32.2214C4.09334 32.4738 2.80279 32.7263 1.50214 32.9787C1.46181 32.9383 1.41139 32.908 1.37106 32.8676C1.78445 32.5546 2.16759 32.0598 2.61122 31.9689C3.63964 31.767 3.97235 30.9592 4.07317 30.0403C5.26291 29.1214 6.79546 29.2022 7.57181 27.4351C7.04752 27.3745 6.58373 27.3139 6.09977 27.2433Z"
              fill="currentColor"/>
        <path d="M365.703 64.7458C365.3 65.493 365.885 65.9575 366.278 66.3513C365.824 66.7552 365.481 67.2702 365.088 67.351C364.584 67.452 364.029 67.2096 363.414 67.0985C363.424 67.0279 363.394 67.25 363.354 67.4621C362.85 67.2601 362.608 66.6239 362.9 65.7657C363.102 65.18 362.981 65.079 362.567 64.8468C361.751 64.3924 361.015 63.5442 360.178 63.3725C359.321 63.1908 358.635 62.8273 357.94 62.1911C357.748 62.4435 357.577 62.6758 357.204 63.1706C357.153 62.5243 357.133 62.1507 357.103 61.7771C357.325 61.7973 357.546 61.7872 357.758 61.8478C359.17 62.2719 360.571 62.7162 362.003 63.1605C362.104 62.8474 362.184 62.595 362.376 62.0093C362.779 64.5842 364.241 64.5842 365.703 64.7458Z"
              fill="currentColor"/>
        <path d="M268.951 7.80527C266.36 7.89615 263.849 7.99712 261.339 8.0779C260.421 8.1082 260.421 8.1082 260.381 8.60298C259.968 8.46161 259.534 8.26976 259.09 8.15869C257.709 7.81537 256.318 7.51244 254.936 7.17922C254.906 7.16912 254.886 7.07824 254.836 6.95707C256.338 6.95707 257.82 6.96717 259.302 6.95707C261.722 6.94697 264.142 6.90658 266.562 6.89648C267.409 6.90658 268.225 7.03785 268.951 7.80527Z"
              fill="currentColor"/>
        <path d="M334.941 0.918849C334.629 1.07031 334.246 1.1107 334.044 1.36314C333.046 2.60515 331.695 2.96866 330.424 3.46345C330.152 3.57452 329.658 3.08984 329.356 2.76671C329.245 2.64554 329.305 1.9791 329.436 1.89832C330.344 1.34295 331.271 0.838068 332.219 0.393773C332.643 0.191821 333.127 0.161528 333.59 0.0504547C334.336 -0.1414 334.75 0.32309 334.941 0.918849Z"
              fill="currentColor"/>
        <path d="M213.185 5.96767C214.455 5.65465 215.403 5.47289 216.341 5.19016C217.157 4.93772 218.609 5.34162 218.992 5.87679C219.577 5.62435 220.091 5.40221 220.757 5.10938C220.585 5.79601 220.464 6.25041 220.333 6.78558C220.182 6.79568 219.93 6.91685 219.759 6.81587C218.992 6.40187 218.337 6.96734 217.631 7.07841C217.45 7.1087 217.248 7.16929 217.067 7.139C216.038 6.93704 215 6.7149 213.981 6.46246C213.739 6.41197 213.538 6.19992 213.185 5.96767Z"
              fill="currentColor"/>
        <path d="M230.607 3.0998C230.436 3.17048 230.184 3.17048 230.093 3.31185C229.327 4.64473 228.016 4.7861 226.947 5.46264C226.443 5.78576 226.02 5.51313 225.747 4.99815C225.637 4.7861 225.647 4.20044 225.758 4.12976C226.584 3.58448 227.441 3.06951 228.318 2.64541C228.742 2.43336 229.236 2.32228 229.69 2.35258C230.043 2.37277 230.395 2.6757 230.738 2.85746C230.698 2.93824 230.658 3.01902 230.607 3.0998Z"
              fill="currentColor"/>
        <path d="M380 55.1328C379.314 55.2237 378.649 55.3448 377.983 55.4054C377.389 55.4559 376.774 55.5165 376.189 55.4357C375.997 55.4054 375.735 54.951 375.705 54.6582C375.634 53.9413 376.199 53.3253 376.834 53.3152C378.286 53.2849 379.456 53.9413 380 55.1328Z"
              fill="currentColor"/>
        <path d="M338.843 14.591C338.198 16.2066 337.603 16.4388 336.383 15.833C335.627 15.4594 334.82 15.2675 334.044 14.9343C333.802 14.8333 333.489 14.591 333.419 14.3385C332.985 12.7532 332.693 12.4806 331.372 12.5513C331.17 12.5614 330.969 12.4099 330.767 12.3392C330.979 12.2483 331.201 12.0565 331.402 12.0767C331.937 12.1272 332.491 12.1978 332.995 12.4099C333.227 12.5109 333.439 12.9249 333.52 13.248C333.721 14.0558 333.913 14.7021 334.82 14.5607C335.335 14.4799 335.889 14.8434 336.423 14.8636C336.897 14.8838 337.381 14.6718 337.865 14.6011C338.168 14.5506 338.47 14.591 338.843 14.591Z"
              fill="currentColor"/>
        <path d="M322.187 8.05783C322.187 7.68421 322.187 7.16924 322.187 6.71484C323.256 6.82592 324.294 6.9067 325.323 7.05816C325.423 7.06826 325.595 7.68421 325.534 7.7549C325 8.33046 324.425 8.86564 323.84 9.36042C323.78 9.41091 323.548 9.18876 323.397 9.07768C323.014 8.76466 322.641 8.44153 322.187 8.05783Z"
              fill="currentColor"/>
        <path d="M326.341 9.84497C326.774 11.188 327.561 10.7336 328.287 10.5619C328.73 10.4508 329.013 10.5114 329.144 11.1274C329.285 11.7635 329.053 11.9453 328.609 12.0765C328.236 12.1876 327.904 12.4603 327.531 12.541C327.027 12.6521 326.532 12.6521 326.512 11.7332C326.502 11.5414 326.169 11.2485 325.948 11.1981C325.413 11.0567 324.859 11.0264 324.314 10.8345C324.899 10.0671 325.897 11.299 326.341 9.84497Z"
              fill="currentColor"/>
        <path d="M12.6938 30.6663C12.956 32.3021 12.3309 32.918 10.6773 32.8675C10.0925 32.8473 9.52789 32.7969 8.96327 33.3522C8.81203 33.5037 8.11634 34.1095 7.48114 33.5845C7.15849 33.3118 6.52329 33.5845 6.02925 33.635C5.71669 33.6653 5.40413 33.7359 5.05124 33.5744C5.64611 33.4128 6.24098 33.221 6.84593 33.0998C7.79369 32.918 8.73139 32.8271 9.60857 32.1708C10.0724 31.8174 10.7479 31.9083 11.3327 31.7871C11.9074 31.6558 12.5829 31.7265 12.6938 30.6663Z"
              fill="currentColor"/>
        <path d="M348.603 16.4186C349.178 15.2069 350.69 16.3883 350.932 14.6919C351.436 15.1867 351.88 15.8733 352.233 15.0756C352.969 15.0756 353.553 15.0756 354.138 15.0756C353.604 15.8531 353.201 16.5196 352.263 16.3479C351.285 16.1762 350.256 16.4085 349.248 16.459C349.057 16.4792 348.865 16.4388 348.603 16.4186Z"
              fill="currentColor"/>
        <path d="M253.686 86.5567C253.021 86.5567 252.345 86.5163 251.68 86.5668C251.014 86.6274 250.349 86.8192 249.683 86.8697C249.522 86.8798 249.34 86.587 249.169 86.4254C249.189 86.3345 249.199 86.2436 249.219 86.1528C250.449 85.8397 251.669 85.4358 252.91 85.2642C253.343 85.2036 253.827 85.7186 254.573 86.1225C254.17 86.4658 253.938 86.6677 253.706 86.8596C253.696 86.7687 253.686 86.6677 253.686 86.5567Z"
              fill="currentColor"/>
        <path d="M105.645 7.29046C106.169 6.39177 106.693 5.49308 107.208 4.60449C107.601 4.89732 107.923 5.20025 108.286 5.39211C108.881 5.70513 109.012 6.31099 108.428 6.64421C107.621 7.1087 106.714 7.32075 105.857 7.63378C105.786 7.5227 105.715 7.41163 105.645 7.29046Z"
              fill="currentColor"/>
        <path d="M370.341 54.4461C370.755 53.7797 371.168 53.1133 371.612 52.3862C371.783 52.4064 372.106 52.4468 372.62 52.5074C372.801 52.9012 373.104 53.5475 373.437 54.2543C373.104 54.2947 372.821 54.2846 372.569 54.3654C372.307 54.4562 372.055 54.638 371.753 54.7996C371.823 54.9914 371.914 55.1934 371.995 55.4054C371.934 55.4458 371.874 55.4862 371.803 55.5165C371.561 55.0116 371.319 54.5067 371.077 54.0119C371.037 53.911 370.986 53.7999 370.946 53.6989C370.845 54.0523 370.744 54.4058 370.634 54.7491C370.533 54.6582 370.432 54.5471 370.341 54.4461Z"
              fill="currentColor"/>
        <path d="M239.914 8.56276C240.267 8.52237 240.468 8.49208 240.73 8.46178C240.73 8.07808 240.73 7.74485 240.73 7.37124C241.043 7.37124 241.305 7.44193 241.527 7.36114C242.202 7.08851 242.303 7.84583 242.545 8.22954C242.646 8.3911 242.414 8.90608 242.253 9.20901C242.081 9.54223 241.829 9.81487 241.577 10.1481C241.335 9.58262 241.134 8.58296 240.216 9.56242C240.125 9.20901 240.045 8.95657 239.914 8.56276Z"
              fill="currentColor"/>
        <path d="M25.0048 8.93618C25.5089 8.08798 26.003 7.23978 26.497 6.42187C26.9709 6.77529 27.3943 7.08832 27.8984 7.47203C27.5758 9.32999 26.1138 8.61306 25.2468 9.21891C25.1661 9.11794 25.0855 9.02706 25.0048 8.93618Z"
              fill="currentColor"/>
        <path d="M139.26 85.9913C139.21 84.7997 140.046 85.2541 140.44 85.2137C141.286 85.1128 142.154 85.2339 143.001 85.3248C143.545 85.3854 143.999 85.6479 143.989 86.2437C142.406 86.1629 140.863 86.0821 139.26 85.9913Z"
              fill="currentColor"/>
        <path d="M199.714 4.58415C200.561 4.51347 201.307 4.49328 202.043 4.36201C202.517 4.28123 202.921 4.04898 203.304 4.70533C203.505 5.03855 203.999 5.11933 204.594 5.43236C203.788 5.58382 203.193 5.69489 202.477 5.82616C202.043 5.27079 201.338 4.98806 200.581 5.16982C199.936 5.32128 199.734 5.04865 199.714 4.58415Z"
              fill="currentColor"/>
        <path d="M367.266 35.6848C368.587 36.4623 369.514 37.3509 370.2 38.5929C370.149 38.6636 370.109 38.7242 370.059 38.7949C369.938 38.6636 369.837 38.5121 369.706 38.4112C369.544 38.29 369.363 38.2092 369.181 38.1082C369.151 38.3708 369.04 38.6737 369.101 38.8959C369.222 39.3402 369.444 39.734 369.625 40.148C369.524 40.2085 369.433 40.2691 369.333 40.3297C368.687 38.8757 368.032 37.4115 367.266 35.6848Z"
              fill="currentColor"/>
        <path d="M5.81784 31.5347C7.74359 31.0702 9.50801 30.0807 11.4438 30.424C9.58867 30.7168 7.915 32.4637 5.81784 31.5347Z"
              fill="currentColor"/>
        <path d="M304.542 6.55327C303.373 6.09888 301.961 6.4422 300.862 4.94775C302.163 5.10932 303.292 5.21029 304.391 5.43244C304.573 5.47283 304.684 6.05849 304.825 6.39171C304.734 6.4422 304.633 6.50279 304.542 6.55327Z"
              fill="currentColor"/>
        <path d="M113.973 7.36092C113.559 7.40131 113.176 7.34072 112.864 7.49219C112.622 7.61336 112.45 7.97687 112.198 8.32019C111.997 7.12867 111.412 6.83584 109.96 7.08828C109.889 6.84594 109.809 6.5834 109.718 6.28048C109.859 6.27038 109.93 6.24008 110 6.25018C110.383 6.32087 110.776 6.48243 111.16 6.47233C111.674 6.45213 112.218 6.12901 112.692 6.26028C113.116 6.36126 113.479 6.90653 113.973 7.36092Z"
              fill="currentColor"/>
        <path d="M52.6912 83.6181C52.5803 82.568 53.3264 82.9315 53.6793 82.8911C55.8672 82.6487 56.7041 82.9719 56.8452 83.8403C55.4942 83.7696 54.1028 83.6888 52.6912 83.6181Z"
              fill="currentColor"/>
        <path d="M18.5315 23.2144C18.5517 22.6489 18.6828 22.5379 19.2172 22.5076C20.1548 22.4571 21.0824 22.0734 22.01 21.8209C22.1915 21.7704 22.373 21.6796 22.5544 21.6089C22.7359 22.447 22.2923 22.9216 21.4655 22.9519C20.4976 22.9923 19.5398 23.1235 18.5315 23.2144Z"
              fill="currentColor"/>
        <path d="M8.31787 34.9376C7.60201 34.9376 7.10798 34.9275 6.60385 34.9679C6.57361 34.9679 6.57359 35.4021 6.55342 35.5839C5.65608 35.5031 4.67808 35.4021 3.70007 35.3112C3.67991 35.3516 3.75048 35.1093 3.85131 35.079C4.55709 34.9174 5.28302 34.8164 5.9888 34.6549C6.36186 34.5741 6.72485 34.4327 7.07774 34.2712C7.68269 33.9884 7.93473 34.4226 8.31787 34.9376Z"
              fill="currentColor"/>
        <path d="M361.499 59.2427C361.902 61.2016 363.324 60.3231 364.322 60.7876C364.009 61.6156 363.545 61.7974 362.85 61.6055C361.499 61.242 361.489 61.2723 361.499 59.2427Z"
              fill="currentColor"/>
        <path d="M227.562 88.1925C226.373 88.2833 225.193 88.3742 224.003 88.4651C223.993 88.3641 223.983 88.2531 223.973 88.1521C225.001 87.9198 226.03 87.6573 227.058 87.4856C227.27 87.4553 227.522 87.7785 227.754 87.94C227.683 88.0107 227.623 88.1016 227.562 88.1925Z"
              fill="currentColor"/>
        <path d="M4.62809 54.6179C5.47503 54.6179 6.32194 54.6179 7.27979 54.6179C7.22937 54.8805 7.25964 55.3248 7.1084 55.4257C6.90675 55.5671 6.58409 55.4863 6.31186 55.456C5.84806 55.4156 5.3742 55.3752 4.9104 55.2642C4.75916 55.2238 4.63817 54.9814 4.49701 54.83C4.54742 54.7593 4.58776 54.6886 4.62809 54.6179Z"
              fill="currentColor"/>
        <path d="M215.695 87.8694C216.109 88.0814 216.512 88.2935 216.905 88.4954C216.189 89.1215 213.689 89.4042 213.417 88.9902C214.163 88.7075 214.959 88.4046 215.756 88.1016C215.736 88.031 215.716 87.9502 215.695 87.8694Z"
              fill="currentColor"/>
        <path d="M211.027 6.4119C210.392 5.16989 209.686 6.3917 209.041 6.11907C208.869 6.04838 208.678 5.9777 208.567 5.83633C208.496 5.73536 208.557 5.49301 208.557 5.32135C208.728 5.34155 208.89 5.39204 209.061 5.38194C209.505 5.35165 209.958 5.32136 210.392 5.24057C211.33 5.05882 211.33 5.04872 211.027 6.4119Z"
              fill="currentColor"/>
        <path d="M242.515 9.99645C243.836 9.48148 244.047 9.57236 244.471 10.8749C243.543 11.3495 243.099 11.1577 242.515 9.99645Z"
              fill="currentColor"/>
        <path d="M126.828 4.03881C127.957 3.80657 129.066 3.07954 130.206 3.76618C129.066 3.62481 127.977 4.75574 126.828 4.03881Z"
              fill="currentColor"/>
        <path d="M17.8963 71.8948C18.8743 72.0563 19.8423 72.228 20.8203 72.3896C20.8203 72.5006 20.8102 72.6218 20.8102 72.7329C20.3061 72.7834 19.7919 72.9247 19.2877 72.8642C18.7836 72.8036 18.2997 72.541 17.7955 72.3593C17.8258 72.2078 17.856 72.0563 17.8963 71.8948Z"
              fill="currentColor"/>
        <path d="M119.145 86.3849C119.851 86.082 120.547 85.779 121.394 85.4155C121.545 85.4963 121.908 85.6882 122.23 85.8598C121.505 86.4859 119.377 86.7585 119.145 86.3849Z"
              fill="currentColor"/>
        <path d="M119.952 7.74464C119.256 7.79513 118.722 7.85572 118.187 7.85572C118.006 7.85572 117.794 7.76484 117.643 7.64367C117.583 7.59318 117.623 7.35084 117.623 7.19937C117.804 7.22966 117.986 7.31044 118.167 7.29025C118.561 7.25996 118.984 7.27005 119.337 7.0984C120.446 6.57332 119.992 7.40132 119.952 7.74464Z"
              fill="currentColor"/>
        <path d="M0.453917 53.689C1.1597 53.9313 1.85538 54.1636 2.7124 54.4564C2.44017 55.0723 2.22846 55.5469 2.00664 56.0316C1.69408 54.9714 1.684 53.7596 0.211945 54.1838C0.292605 54.0323 0.373256 53.8606 0.453917 53.689Z"
              fill="currentColor"/>
        <path d="M313.233 86.1932C312.034 85.6378 311.298 87.4554 309.997 86.8899C310.773 86.4052 311.419 85.961 312.104 85.6176C312.518 85.4056 313.002 85.3551 313.233 86.1932Z"
              fill="currentColor"/>
        <path d="M128.572 85.567C129.369 85.3348 130.145 85.0521 130.952 84.8905C131.285 84.8299 131.879 84.5876 131.879 85.5468C130.77 85.6478 129.681 85.7387 128.592 85.8296C128.592 85.7488 128.582 85.6579 128.572 85.567Z"
              fill="currentColor"/>
        <path d="M235.86 9.78442C236.979 9.84501 237.937 9.9056 239.177 9.97628C238.855 10.2287 238.673 10.4913 238.482 10.4913C237.685 10.5115 236.889 10.4711 236.102 10.4105C236.032 10.4105 235.981 10.0974 235.86 9.78442Z"
              fill="currentColor"/>
        <path d="M245.439 86.1526C246.104 85.9607 246.77 85.6073 247.425 85.6477C247.899 85.678 248.101 86.2637 247.818 86.506C246.861 86.506 246.205 86.506 245.55 86.506C245.51 86.3848 245.479 86.2738 245.439 86.1526Z"
              fill="currentColor"/>
        <path d="M22.0506 19.1953C22.0607 19.0943 22.0909 18.7308 22.1313 18.2966C22.3833 18.3471 22.6152 18.3976 22.7967 18.4279C22.827 19.8315 21.7784 19.993 21.1734 20.6696C21.1028 20.5888 21.0423 20.508 20.9718 20.4272C21.2843 20.094 21.5767 19.7406 22.0506 19.1953Z"
              fill="currentColor"/>
        <path d="M252.557 7.01782C253.354 7.01782 253.949 7.01782 254.654 7.01782C254.463 7.56309 254.322 7.93671 254.221 8.20934C253.717 7.84583 253.223 7.49241 252.557 7.01782Z"
              fill="currentColor"/>
        <path d="M230.557 8.63346C229.861 8.42141 229.458 8.30024 228.914 8.13868C229.065 7.75497 229.135 7.34096 229.337 7.13901C229.458 7.02794 229.882 7.1794 230.033 7.37126C230.255 7.64389 230.335 8.0579 230.557 8.63346Z"
              fill="currentColor"/>
        <path d="M254.483 10.9659C253.918 10.6327 253.454 10.3701 252.839 10.0167C253.525 9.70368 253.979 9.49163 254.563 9.21899C254.533 9.78446 254.513 10.2389 254.483 10.9659Z"
              fill="currentColor"/>
        <path d="M224.79 7.53279C224.991 6.93703 225.142 6.50283 225.253 6.14941C225.455 6.14941 225.687 6.14941 225.919 6.14941C225.979 6.55332 226.04 6.97742 226.11 7.40152C225.707 7.43181 225.274 7.4823 224.79 7.53279Z"
              fill="currentColor"/>
        <path d="M336.877 7.53272C336.676 7.6236 336.333 7.85584 336.282 7.78516C335.929 7.28028 335.627 6.71481 335.314 6.15944C335.405 6.06856 335.486 5.96759 335.577 5.87671C336.03 6.31091 336.484 6.7552 336.948 7.1894C336.918 7.30047 336.897 7.42164 336.877 7.53272Z"
              fill="currentColor"/>
        <path d="M229.296 5.55359C229.71 5.55359 230.073 5.48291 230.405 5.58389C230.587 5.64447 230.748 5.97769 230.819 6.23013C230.839 6.30082 230.547 6.62394 230.385 6.64413C229.76 6.72492 229.306 6.47248 229.296 5.55359Z"
              fill="currentColor"/>
        <path d="M44.4334 6.29062C44.5947 5.45252 46.2382 5.03852 47.2666 5.59389C46.3088 5.82613 45.3711 6.05838 44.4334 6.29062Z"
              fill="currentColor"/>
        <path d="M318.718 83.6587C318.265 85.3955 317.821 85.7691 316.823 85.4662C317.458 84.8603 318.083 84.2544 318.718 83.6587Z"
              fill="currentColor"/>
        <path d="M356.931 66.624C357.163 65.7758 357.354 65.0892 357.566 64.3521C358.201 65.4123 358.282 65.9172 356.931 66.624Z"
              fill="currentColor"/>
        <path d="M260.542 85.7893C261.359 85.7085 262.166 85.6277 263.114 85.5369C263.134 85.658 263.174 85.9408 263.214 86.2235C262.246 86.1528 261.389 86.0821 260.532 86.0216C260.532 85.9408 260.542 85.86 260.542 85.7893Z"
              fill="currentColor"/>
        <path d="M365.32 61.4944C364.604 61.1713 364.916 60.4847 364.846 59.9091C365.168 59.8081 365.451 59.7173 365.713 59.6365C365.592 60.1918 365.471 60.7573 365.32 61.4944Z"
              fill="currentColor"/>
        <path d="M231.192 7.81543C231.495 8.21933 231.817 8.60304 232.089 9.02714C232.15 9.11802 232.079 9.40075 232.009 9.53202C231.948 9.6229 231.696 9.68349 231.676 9.6431C231.394 9.12812 231.132 8.59295 230.869 8.06787C230.98 7.97699 231.091 7.89621 231.192 7.81543Z"
              fill="currentColor"/>
        <path d="M299.158 82.7903C298.291 82.9114 297.434 83.0326 296.567 83.1538C296.557 83.0427 296.547 82.9417 296.537 82.8307C297.394 82.6994 298.261 82.558 299.118 82.4268C299.138 82.5378 299.148 82.6691 299.158 82.7903Z"
              fill="currentColor"/>
        <path d="M243.089 7.98706C243.785 8.28999 244.37 8.55253 244.985 8.81506C244.491 9.5219 243.916 9.25936 243.089 7.98706Z"
              fill="currentColor"/>
        <path d="M29.8442 13.1874C29.3199 13.3894 28.8763 13.561 28.4327 13.7428C28.3924 13.6519 28.3419 13.561 28.3016 13.4701C28.7452 13.1066 29.199 12.7532 29.7333 12.3291C29.7737 12.6825 29.8039 12.9552 29.8442 13.1874Z"
              fill="currentColor"/>
        <path d="M0.0804748 29.6867C0.887088 29.2929 1.47187 29.0102 2.08691 28.7073C1.96592 29.5151 1.28031 29.8988 0.0804748 29.6867Z"
              fill="currentColor"/>
        <path d="M304.522 9.20885C304.623 8.5626 304.714 7.90626 304.815 7.26001C304.936 7.2802 305.046 7.3004 305.167 7.3105C305.107 7.96684 305.036 8.63329 304.976 9.28963C304.825 9.26943 304.673 9.23914 304.522 9.20885Z"
              fill="currentColor"/>
        <path d="M38.4548 87.4352C37.7491 87.2029 37.0534 86.9707 36.3476 86.7485C36.3678 86.6678 36.3879 86.5769 36.398 86.4961C37.1139 86.6879 37.8398 86.8899 38.5557 87.0817C38.5254 87.2029 38.4851 87.3241 38.4548 87.4352Z"
              fill="currentColor"/>
        <path d="M232.684 84.5976C232.966 84.1836 233.108 83.7999 233.239 83.81C233.642 83.8403 234.035 84.012 234.438 84.1331C234.418 84.2442 234.408 84.3553 234.388 84.4664C233.914 84.5067 233.44 84.537 232.684 84.5976Z"
              fill="currentColor"/>
        <path d="M143.484 7.87598C144.018 7.93656 144.543 7.99715 145.077 8.05773C145.077 8.14861 145.077 8.23949 145.077 8.33037C144.543 8.33037 143.998 8.33037 143.464 8.33037C143.464 8.1789 143.474 8.02744 143.484 7.87598Z"
              fill="currentColor"/>
        <path d="M363.142 38.2899C363.192 37.9163 363.243 37.5831 363.293 37.2499C363.354 37.2398 363.424 37.2196 363.485 37.2095C363.717 37.6942 363.959 38.1788 364.251 38.7746C363.828 38.5828 363.535 38.4616 363.142 38.2899Z"
              fill="currentColor"/>
        <path d="M248.947 7.02783C249.653 7.02783 250.369 7.02783 251.075 7.02783C251.075 7.11871 251.075 7.20959 251.075 7.29037C250.359 7.29037 249.653 7.29037 248.937 7.29037C248.947 7.20959 248.947 7.11871 248.947 7.02783Z"
              fill="currentColor"/>
        <path d="M38.515 14.4999C39.9064 13.6719 40.1685 13.6921 40.4307 14.4999C39.866 14.4999 39.3014 14.4999 38.515 14.4999Z"
              fill="currentColor"/>
        <path d="M123.602 89.9999C122.785 89.7475 121.968 89.495 121.152 89.2426C121.162 89.1618 121.182 89.081 121.192 89.0002C122.029 89.2022 122.866 89.4041 123.692 89.6162C123.662 89.7475 123.632 89.8787 123.602 89.9999Z"
              fill="currentColor"/>
        <path d="M278.025 84.6886C277.491 84.5978 276.946 84.517 276.412 84.4261C276.422 84.3049 276.442 84.1737 276.452 84.0525C276.987 84.1232 277.521 84.204 278.045 84.2746C278.045 84.416 278.035 84.5473 278.025 84.6886Z"
              fill="currentColor"/>
        <path d="M26.9606 71.188C27.253 71.1578 27.5454 71.1275 27.8882 71.0972C27.8882 71.4304 27.8882 71.7333 27.8882 72.2685C27.4748 71.9151 27.1824 71.6626 26.89 71.4001C26.9102 71.3294 26.9404 71.2587 26.9606 71.188Z"
              fill="currentColor"/>
        <path d="M20.8306 20.3264C20.5281 20.0437 20.3466 19.872 20.0643 19.6095C20.4273 19.3571 20.7096 19.1551 21.2339 18.7815C21.0726 19.4479 20.9717 19.8316 20.8306 20.3264Z"
              fill="currentColor"/>
        <path d="M236.385 9.14834C236.113 8.72424 235.85 8.31024 235.578 7.88614C235.659 7.80536 235.739 7.72458 235.82 7.6438C236.123 8.03761 236.425 8.42131 236.728 8.81512C236.617 8.93629 236.496 9.04737 236.385 9.14834Z"
              fill="currentColor"/>
        <path d="M122.17 80.9321C125.124 80.9321 128.078 80.9321 131.083 80.9321C130.639 81.5784 129.873 81.8914 128.946 81.851C128.371 81.8308 127.796 81.75 127.231 81.7803C126.818 81.8106 126.405 81.9823 126.082 82.0732C124.751 81.7399 123.451 81.4168 122.15 81.0937C122.15 81.0432 122.16 80.9927 122.17 80.9321Z"
              fill="currentColor"/>
        <path d="M116.917 79.4176C117.209 79.2662 117.502 79.1046 117.855 78.9229C117.905 79.1248 117.955 79.2864 117.976 79.458C118.097 80.2254 118.51 80.1447 118.762 79.7206C119.508 78.4483 120.416 79.044 121.293 79.3066C121.857 79.4782 122.392 79.761 122.916 80.0942C120.849 80.7707 118.843 80.6294 116.887 79.7105C116.907 79.6196 116.907 79.5186 116.917 79.4176Z"
              fill="currentColor"/>
        <path d="M180.265 83.4869C182.06 82.4873 184.278 82.356 185.236 83.4263C184.661 83.5475 184.097 83.6586 183.522 83.7999C182.836 83.9615 182.161 84.1837 181.475 84.325C180.9 84.4563 180.416 84.325 180.265 83.4869Z"
              fill="currentColor"/>
        <path d="M89.5023 81.2251C91.0348 80.1648 92.5169 80.3567 93.9991 80.6596C94.0192 80.8212 94.0394 80.9827 94.0596 81.1443C93.5353 81.2554 93.0211 81.3563 92.4968 81.4876C91.8918 81.6391 91.2869 81.8208 90.6819 81.9925C90.1576 82.1339 89.7947 81.9218 89.5023 81.2251Z"
              fill="currentColor"/>
        <path d="M168.58 84.3049C168.953 84.1736 169.316 83.9716 169.689 83.9212C170.707 83.7798 171.726 83.6586 172.734 83.6384C173.077 83.6384 173.419 83.9817 173.762 84.1736C173.742 84.315 173.722 84.4563 173.702 84.5977C173.198 84.6482 172.683 84.7694 172.189 84.729C171.342 84.6583 170.536 84.3755 169.709 85.0016C169.477 85.1733 168.973 84.8097 168.59 84.6987C168.59 84.5674 168.58 84.4361 168.58 84.3049Z"
              fill="currentColor"/>
        <path d="M152.307 9.16856C151.51 10.2793 148.243 10.249 147.669 9.04739C149.252 8.81515 150.744 8.81515 152.307 9.16856Z"
              fill="currentColor"/>
        <path d="M16.8682 35.6344C16.7673 35.594 16.5758 35.5132 16.2733 35.3719C16.233 35.1699 16.1422 34.766 16.0515 34.3217C16.2632 34.1299 16.4649 33.938 16.6665 33.736C17.3824 33.0696 17.7151 33.1201 18.3604 33.9279C18.7233 34.3823 18.7233 34.6751 18.189 34.9074C17.7655 35.0992 17.3622 35.3618 16.8682 35.6344Z"
              fill="currentColor"/>
        <path d="M14.771 35.604C14.5592 35.6646 14.4281 35.7555 14.3072 35.7353C14.1257 35.7151 13.9543 35.6141 13.7829 35.5434C13.9139 35.4021 14.0148 35.2001 14.166 35.1496C14.4685 35.0284 14.7911 34.9881 15.1642 34.8972C15.1642 35.2506 15.1642 35.5434 15.1642 35.8363C15.2348 35.8464 15.3053 35.8464 15.3759 35.8564C15.4162 35.503 15.4566 35.1395 15.507 34.7861C15.5876 34.7558 15.6683 34.7255 15.749 34.7053C15.87 35.2809 16.2229 36.1897 16.0615 36.3613C15.6784 36.7551 15.0432 36.8056 14.5088 36.9874C14.4584 36.9066 14.408 36.8359 14.3576 36.7551C14.4786 36.4118 14.5996 36.0786 14.771 35.604Z"
              fill="currentColor"/>
        <path d="M228.339 80.8514C228.379 81.1846 228.439 81.639 228.52 82.2752C227.673 81.74 226.998 81.3159 226.322 80.8918C226.322 80.8413 226.322 80.7807 226.322 80.7302C226.947 80.7605 227.572 80.8009 228.339 80.8514Z"
              fill="currentColor"/>
        <path d="M268.236 80.0537C267.721 79.8315 267.076 80.5383 266.985 79.5084C266.965 79.2963 267.429 78.8218 267.681 78.8117C268.286 78.7814 268.266 79.3771 268.236 80.0537Z"
              fill="currentColor"/>
        <path d="M257.609 79.6498C257.961 79.4882 258.254 79.3469 258.597 79.1853C258.748 79.4478 258.919 79.7306 259.081 80.0234C258.496 80.8211 257.921 80.6898 257.609 79.6498Z"
              fill="currentColor"/>
        <path d="M159.667 8.12856C159.223 8.15885 158.79 8.22954 158.346 8.19924C158.245 8.18915 158.064 7.88622 158.074 7.72466C158.074 7.57319 158.296 7.29046 158.386 7.30056C158.84 7.39143 159.274 7.56309 159.717 7.71456C159.707 7.85592 159.687 7.99729 159.667 8.12856Z"
              fill="currentColor"/>
        <path d="M73.683 9.78452C73.2696 9.82491 72.8562 9.90569 72.4428 9.88549C72.342 9.8754 72.1807 9.55227 72.1807 9.37052C72.1807 9.23925 72.4328 8.98681 72.5336 9.007C72.9369 9.09788 73.3301 9.26954 73.7334 9.421C73.7132 9.54218 73.7032 9.66335 73.683 9.78452Z"
              fill="currentColor"/>
        <path d="M262.115 79.4175C262.378 79.2661 262.64 79.1146 262.892 78.9631C262.952 79.0035 263.013 79.0338 263.073 79.0742C262.851 79.4983 262.64 79.9123 262.418 80.3364C262.226 80.0436 262.025 79.7608 261.833 79.468C261.934 79.4478 262.025 79.4377 262.115 79.4175Z"
              fill="currentColor"/>
        <path d="M132.373 11.3293C132.928 11.3899 133.492 11.4606 134.047 11.5212C134.037 11.6626 134.017 11.814 134.007 11.9554C133.442 11.8746 132.877 11.7837 132.323 11.703C132.333 11.5818 132.353 11.4606 132.373 11.3293Z"
              fill="currentColor"/>
    </symbol>
    <symbol viewBox="0 0 16 12" id="decor-text">
        <path d="M13.4953 1.83103C13.9127 1.79069 14.354 2.13642 14.3719 2.59164C14.4017 3.02956 14.1095 3.47901 13.6563 3.64035C13.1971 3.80169 12.6783 3.68645 12.3085 3.38105C11.9269 3.08718 11.736 2.56282 11.8016 2.09609C11.8493 1.62359 12.1177 1.17414 12.5172 0.880268C12.9108 0.580635 13.4654 0.453867 13.9485 0.517251C14.9444 0.609446 15.821 1.42191 15.9761 2.40725C16.0536 2.90279 15.988 3.36377 15.815 3.81898C15.6302 4.26267 15.332 4.67178 14.9265 4.97142C14.5329 5.27681 14.0499 5.46696 13.5549 5.53611C13.3104 5.57644 13.0599 5.57644 12.8035 5.5534C12.5649 5.52459 12.3324 5.49001 12.1177 5.43239C11.247 5.22495 10.4777 4.89651 9.71441 4.5623C8.95108 4.22233 8.21161 3.85931 7.47214 3.45596L8.12216 3.42139C7.42443 3.89965 6.72671 4.303 5.97531 4.68331C5.21795 5.04056 4.44866 5.39205 3.53625 5.52458C3.08303 5.59373 2.59402 5.59949 2.12887 5.49001C1.65776 5.38629 1.18068 5.16733 0.822869 4.8216C0.453133 4.48163 0.214596 4.03794 0.10129 3.58273C-0.00605213 3.12752 -0.0358716 2.68383 0.0833987 2.19404C0.327901 1.24905 1.24031 0.523013 2.22429 0.499964C2.71329 0.465391 3.23808 0.638256 3.60185 0.955176C3.97158 1.2721 4.20416 1.72731 4.22205 2.19404C4.25783 2.66654 4.02526 3.15057 3.64359 3.42715C3.26193 3.70374 2.74907 3.79593 2.30778 3.6173C1.87244 3.43868 1.59812 2.98923 1.63987 2.56282C1.67565 2.11914 2.10502 1.78493 2.5165 1.83103C2.10502 1.85408 1.78895 2.21709 1.81877 2.56859C1.8307 2.92584 2.08713 3.24276 2.42108 3.33496C2.74311 3.43291 3.12477 3.31767 3.35735 3.09871C3.60185 2.87398 3.70323 2.55706 3.64359 2.2459C3.5601 1.6063 2.91009 1.13957 2.28988 1.24905C1.6339 1.31819 1.09123 1.8195 0.977919 2.40148C0.924249 2.67807 0.96003 3.02956 1.05545 3.32919C1.15086 3.62883 1.31187 3.89389 1.53252 4.0898C1.96786 4.48163 2.68347 4.59111 3.34542 4.45282C4.74087 4.16471 6.16614 3.34072 7.41251 2.49368L7.72857 2.28048L8.06253 2.45911C9.45202 3.20819 10.9369 3.96303 12.398 4.37791C12.7737 4.47587 13.0778 4.53925 13.3998 4.49892C13.7219 4.46434 14.032 4.35486 14.2824 4.17047C14.8013 3.81898 15.0994 3.15633 15.0458 2.53401C14.998 1.92899 14.4792 1.38158 13.8352 1.2721C13.1971 1.11076 12.5053 1.53139 12.3801 2.17676C12.3026 2.49368 12.3801 2.81636 12.6186 3.05837C12.8393 3.30038 13.2269 3.42715 13.5549 3.34648C13.8948 3.27157 14.1751 2.95465 14.193 2.59164C14.2347 2.23438 13.9187 1.85408 13.4953 1.83103Z"  />
        <path d="M12.0581 7.68546C11.3306 7.13805 10.6627 6.57912 9.97685 6.07205C9.63097 5.82427 9.29702 5.58802 8.94517 5.40939C8.60525 5.225 8.25341 5.08671 7.99698 5.09824C7.74651 5.08671 7.39467 5.225 7.05475 5.40939C6.70291 5.58802 6.36895 5.83003 6.02307 6.07205C5.34323 6.57335 4.66936 7.13229 3.94182 7.67969C4.27577 6.84418 4.77074 6.08933 5.39094 5.40939C5.68911 5.0579 6.05885 4.76403 6.4584 4.47592C6.86988 4.21662 7.35292 3.95732 8.00294 3.9458C8.65296 3.96309 9.136 4.21662 9.54748 4.48745C9.953 4.76979 10.3168 5.06943 10.6149 5.42092C11.2292 6.09509 11.7301 6.84418 12.0581 7.68546Z" />
        <path fill-rule="evenodd" clip-rule="evenodd" d="M8.01176 6.86416C8.02336 6.87505 8.03511 6.88621 8.04699 6.89764C8.2766 7.11845 8.53427 7.41952 8.70049 7.7677C8.86332 8.10877 8.93121 8.47725 8.82123 8.86992C8.73083 9.19267 8.50597 9.58265 8.01925 10.0165C8.01235 10.0095 8.0054 10.0025 7.9984 9.99535C7.78335 9.77585 7.54015 9.47482 7.38266 9.1247C7.22793 8.78071 7.16166 8.40437 7.26768 8.00266C7.35348 7.67754 7.56394 7.29115 8.01176 6.86416ZM8.00309 10.7798L7.64675 11.2418L8.00745 11.5016L8.36499 11.2378C9.2624 10.5757 9.77393 9.87995 9.97251 9.17099C10.1722 8.45786 10.0337 7.80896 9.78351 7.28498C9.53676 6.76811 9.17498 6.35647 8.88837 6.08083C8.74302 5.94104 8.61175 5.83124 8.51532 5.75531C8.46698 5.71725 8.42704 5.68742 8.39802 5.66631C8.3835 5.65575 8.37168 5.64735 8.36288 5.64118L8.35197 5.63358L8.34827 5.63104L8.34687 5.63008L8.34629 5.62969C8.34603 5.62951 8.34578 5.62934 8.00309 6.10092L8.34578 5.62934L7.97738 5.37939L7.62764 5.65324C6.77706 6.31923 6.29732 7.01558 6.11197 7.71789C5.92615 8.42198 6.05444 9.06302 6.28882 9.58408C6.52045 10.099 6.86093 10.5107 7.13227 10.7876C7.26967 10.9279 7.39388 11.0382 7.48531 11.1146C7.53114 11.1529 7.56906 11.1829 7.59668 11.2042C7.61051 11.2149 7.62178 11.2234 7.63022 11.2297L7.64071 11.2375L7.6443 11.2401L7.64567 11.2411L7.64625 11.2415C7.6465 11.2417 7.64675 11.2418 8.00309 10.7798Z" />
    </symbol>
    <symbol viewBox="0 0 16 12" id="decor-text-transparent">
        <path d="M13.4953 1.83103C13.9127 1.79069 14.354 2.13642 14.3719 2.59164C14.4017 3.02956 14.1095 3.47901 13.6563 3.64035C13.1971 3.80169 12.6783 3.68645 12.3085 3.38105C11.9269 3.08718 11.736 2.56282 11.8016 2.09609C11.8493 1.62359 12.1177 1.17414 12.5172 0.880268C12.9108 0.580635 13.4654 0.453867 13.9485 0.517251C14.9444 0.609446 15.821 1.42191 15.9761 2.40725C16.0536 2.90279 15.988 3.36377 15.815 3.81898C15.6302 4.26267 15.332 4.67178 14.9265 4.97142C14.5329 5.27681 14.0499 5.46696 13.5549 5.53611C13.3104 5.57644 13.0599 5.57644 12.8035 5.5534C12.5649 5.52459 12.3324 5.49001 12.1177 5.43239C11.247 5.22495 10.4777 4.89651 9.71441 4.5623C8.95108 4.22233 8.21161 3.85931 7.47214 3.45596L8.12216 3.42139C7.42443 3.89965 6.72671 4.303 5.97531 4.68331C5.21795 5.04056 4.44866 5.39205 3.53625 5.52458C3.08303 5.59373 2.59402 5.59949 2.12887 5.49001C1.65776 5.38629 1.18068 5.16733 0.822869 4.8216C0.453133 4.48163 0.214596 4.03794 0.10129 3.58273C-0.00605213 3.12752 -0.0358716 2.68383 0.0833987 2.19404C0.327901 1.24905 1.24031 0.523013 2.22429 0.499964C2.71329 0.465391 3.23808 0.638256 3.60185 0.955176C3.97158 1.2721 4.20416 1.72731 4.22205 2.19404C4.25783 2.66654 4.02526 3.15057 3.64359 3.42715C3.26193 3.70374 2.74907 3.79593 2.30778 3.6173C1.87244 3.43868 1.59812 2.98923 1.63987 2.56282C1.67565 2.11914 2.10502 1.78493 2.5165 1.83103C2.10502 1.85408 1.78895 2.21709 1.81877 2.56859C1.8307 2.92584 2.08713 3.24276 2.42108 3.33496C2.74311 3.43291 3.12477 3.31767 3.35735 3.09871C3.60185 2.87398 3.70323 2.55706 3.64359 2.2459C3.5601 1.6063 2.91009 1.13957 2.28988 1.24905C1.6339 1.31819 1.09123 1.8195 0.977919 2.40148C0.924249 2.67807 0.96003 3.02956 1.05545 3.32919C1.15086 3.62883 1.31187 3.89389 1.53252 4.0898C1.96786 4.48163 2.68347 4.59111 3.34542 4.45282C4.74087 4.16471 6.16614 3.34072 7.41251 2.49368L7.72857 2.28048L8.06253 2.45911C9.45202 3.20819 10.9369 3.96303 12.398 4.37791C12.7737 4.47587 13.0778 4.53925 13.3998 4.49892C13.7219 4.46434 14.032 4.35486 14.2824 4.17047C14.8013 3.81898 15.0994 3.15633 15.0458 2.53401C14.998 1.92899 14.4792 1.38158 13.8352 1.2721C13.1971 1.11076 12.5053 1.53139 12.3801 2.17676C12.3026 2.49368 12.3801 2.81636 12.6186 3.05837C12.8393 3.30038 13.2269 3.42715 13.5549 3.34648C13.8948 3.27157 14.1751 2.95465 14.193 2.59164C14.2347 2.23438 13.9187 1.85408 13.4953 1.83103Z" fill="currentColor" />
        <path d="M12.0581 7.68546C11.3306 7.13805 10.6627 6.57912 9.97685 6.07205C9.63097 5.82427 9.29702 5.58802 8.94517 5.40939C8.60525 5.225 8.25341 5.08671 7.99698 5.09824C7.74651 5.08671 7.39467 5.225 7.05475 5.40939C6.70291 5.58802 6.36895 5.83003 6.02307 6.07205C5.34323 6.57335 4.66936 7.13229 3.94182 7.67969C4.27577 6.84418 4.77074 6.08933 5.39094 5.40939C5.68911 5.0579 6.05885 4.76403 6.4584 4.47592C6.86988 4.21662 7.35292 3.95732 8.00294 3.9458C8.65296 3.96309 9.136 4.21662 9.54748 4.48745C9.953 4.76979 10.3168 5.06943 10.6149 5.42092C11.2292 6.09509 11.7301 6.84418 12.0581 7.68546Z" fill="currentColor" />
        <path fill-rule="evenodd" clip-rule="evenodd" d="M8.01176 6.86416C8.02336 6.87505 8.03511 6.88621 8.04699 6.89764C8.2766 7.11845 8.53427 7.41952 8.70049 7.7677C8.86332 8.10877 8.93121 8.47725 8.82123 8.86992C8.73083 9.19267 8.50597 9.58265 8.01925 10.0165C8.01235 10.0095 8.0054 10.0025 7.9984 9.99535C7.78335 9.77585 7.54015 9.47482 7.38266 9.1247C7.22793 8.78071 7.16166 8.40437 7.26768 8.00266C7.35348 7.67754 7.56394 7.29115 8.01176 6.86416ZM8.00309 10.7798L7.64675 11.2418L8.00745 11.5016L8.36499 11.2378C9.2624 10.5757 9.77393 9.87995 9.97251 9.17099C10.1722 8.45786 10.0337 7.80896 9.78351 7.28498C9.53676 6.76811 9.17498 6.35647 8.88837 6.08083C8.74302 5.94104 8.61175 5.83124 8.51532 5.75531C8.46698 5.71725 8.42704 5.68742 8.39802 5.66631C8.3835 5.65575 8.37168 5.64735 8.36288 5.64118L8.35197 5.63358L8.34827 5.63104L8.34687 5.63008L8.34629 5.62969C8.34603 5.62951 8.34578 5.62934 8.00309 6.10092L8.34578 5.62934L7.97738 5.37939L7.62764 5.65324C6.77706 6.31923 6.29732 7.01558 6.11197 7.71789C5.92615 8.42198 6.05444 9.06302 6.28882 9.58408C6.52045 10.099 6.86093 10.5107 7.13227 10.7876C7.26967 10.9279 7.39388 11.0382 7.48531 11.1146C7.53114 11.1529 7.56906 11.1829 7.59668 11.2042C7.61051 11.2149 7.62178 11.2234 7.63022 11.2297L7.64071 11.2375L7.6443 11.2401L7.64567 11.2411L7.64625 11.2415C7.6465 11.2417 7.64675 11.2418 8.00309 10.7798Z" fill="currentColor" />
    </symbol>
    <symbol viewBox="0 0 294 60" id="bg--subscribe">
        <path d="M275.455 5.07338C274.759 5.28049 275.967 5.54104 275.172 5.6947C272.578 5.5544 271.37 4.66585 268.616 4.6124C268.678 4.31845 268.296 4.27168 268.333 3.99108C238.249 0.837722 205.016 1.25862 171.087 0.276531C147.441 -0.404916 122.075 0.316616 99.5136 0.89785C93.8023 1.04483 88.054 1.21853 83.2607 1.51917C76.6437 1.9267 69.5153 2.08036 63.8718 3.22279C63.0092 3.39649 62.4917 3.75057 61.5922 3.83742C50.4961 4.99321 36.184 3.10253 26.5172 5.3807C26.6281 6.38283 28.8153 6.97742 28.5134 7.69896C24.4533 7.81921 20.2329 7.84594 18.8159 9.40257C19.4382 9.37585 19.7216 9.52951 19.6723 9.87023C18.5756 9.99717 17.2325 9.99049 17.1031 10.6452C18.3415 10.6452 19.5737 10.6452 20.8121 10.6452C21.8964 11.5672 26.0244 12.3689 23.3813 13.8921C26.049 13.4913 28.2054 14.8141 27.3736 16.364C25.3651 16.511 24.0651 17.159 23.0978 17.4463C25.1926 17.9073 27.8788 18.0476 29.3698 18.8359C28.5134 19.3904 25.8334 20.2924 27.3736 21.1542C21.6623 21.2477 14.7619 21.4949 10.2643 22.6975C10.0733 23.7263 9.08141 24.3209 7.98474 24.8621C8.96435 25.5168 11.0222 25.5903 11.4041 26.5657C13.3634 26.7928 15.7415 26.7928 16.5363 27.648C15.8832 28.5299 13.3449 28.3896 12.8273 29.3516C15.4766 29.7458 18.5078 29.4652 20.5287 30.4339C19.623 30.6143 18.206 30.5141 18.2491 31.2089C20.5965 31.1755 21.3974 31.9772 22.5249 32.5985C22.1429 32.5985 21.7671 32.5985 21.3851 32.5985C22.7035 33.3334 21.4344 33.928 22.2415 35.0704C20.1837 37.4087 13.4188 37.1949 7.41176 37.3887C8.09564 38.0501 10.8065 38.4309 10.5477 39.0856C8.90891 39.2793 7.24542 39.4597 6.83879 40.3216C7.43025 40.7224 8.47763 40.8761 9.69136 40.9429C9.6852 41.2502 8.91507 41.1366 9.11838 41.5642C12.1804 41.965 15.1994 42.3926 17.6699 43.1075C14.8359 43.5284 11.1947 43.515 9.11838 44.3434C12.9567 43.6954 20.0481 42.8068 21.6623 45.1184C19.9434 46.8688 13.0738 45.8199 9.40179 46.508C9.17383 48.519 12.7657 48.0647 14.8174 48.519C10.6032 49.0735 4.86108 49.5812 0 49.2873C4.76867 50.0823 9.716 50.5633 15.6861 50.6769C15.1624 51.4585 15.76 52.8081 13.9733 53.4628C18.6927 54.2044 22.9007 55.2198 28.5134 55.4737C28.6859 56.2554 29.2774 56.8166 29.9366 57.331C28.9077 57.2909 28.5627 57.6183 27.657 57.6383C27.7618 58.1928 28.421 58.2062 27.9404 58.7206C29.567 59.5023 30.8053 59.1014 32.7892 59.4956C36.72 60.2706 42.4991 59.9633 47.9023 59.8029C62.9908 59.3687 79.5024 59.1883 94.098 58.7206C123.554 57.7853 156.46 58.6271 186.483 59.0279C194.388 59.1348 203.303 58.9745 213.29 58.7206C221.102 58.5202 226.851 58.3799 234.108 58.2596C241.354 58.1394 248.919 58.6271 255.493 58.2596C258.173 58.1127 260.706 57.5515 263.478 58.106C263.429 57.7719 263.712 57.6116 264.334 57.645C268.142 57.5515 273.57 56.9903 272.319 54.7054C273.73 54.6119 273.046 54.5518 274.032 53.9304C273.157 53.6298 271.796 53.5964 271.179 53.1555C270.311 53.9705 267.433 53.7033 266.047 54.2378C264.704 53.5229 262.406 53.3292 261.488 52.3805C262.48 52.4673 263.607 53.2824 264.341 52.9951C263.318 52.5208 262.363 52.0064 261.488 51.4519C263.09 51.2047 266.867 51.6389 266.337 52.5341C267.477 52.4807 267.92 52.8081 269.189 52.6878C270.009 52.5408 269.374 52.1734 269.762 52.0665C270.187 52.2469 271.038 52.2001 270.902 52.6878C270.545 52.6544 270.317 52.4473 270.329 52.8415C272.017 53.3893 274.895 53.6365 276.318 53.4628C275.905 53.3626 274.513 53.0218 275.178 52.8415C277.014 53.1087 278.129 52.6277 279.17 52.0665C278.413 52.0665 277.488 52.1533 277.458 51.7592C278.64 51.7391 277.513 51.659 277.458 51.4519C279.146 51.0577 279.448 52.2201 280.027 51.9128C279.639 51.4986 278.696 50.5833 278.887 50.3695C280.347 50.3495 280.797 50.4831 280.027 49.9086C280.526 50.1624 281.967 50.7036 282.59 50.3695C281.475 49.6547 278.875 48.8129 278.314 47.8976C280.495 47.7373 281.579 48.7528 283.163 48.0513C281.672 47.5369 280.452 47.7573 279.743 46.969C281 47.1494 282.405 47.45 283.452 46.969C281.401 47.0826 281.364 45.7998 281.74 45.4257C279.891 44.9313 277.803 44.5706 275.184 44.4971C274.753 45.105 274.741 45.7999 274.611 46.194C275.036 46.2207 275.665 46.1406 275.751 46.3477C275.412 46.4212 275.104 46.5147 274.895 46.655C275.967 46.7418 276.866 46.9222 276.891 47.5836C275.03 47.4567 274.987 47.7106 275.178 48.0446C272.978 48.0246 271.808 47.8375 270.046 48.1983C263.903 46.2742 251.661 47.6504 246.092 45.4124C246.578 45.3522 246.03 45.2119 246.092 44.9514C252.536 44.0294 259.227 45.2253 264.914 46.0337C267.742 45.0583 269.799 46.8821 272.325 46.655C271.364 46.8153 271.882 46.174 271.752 45.88C272.559 45.7531 272.492 46.1005 273.176 46.0337C273.613 45.0249 272.375 44.9247 271.752 44.4904C272.596 44.4503 273.157 45.105 273.465 44.4904C272.911 44.5639 272.005 44.0762 272.609 44.0294C275.769 44.0962 279.398 44.3501 282.306 44.9581C282.103 44.4971 281.456 44.2833 281.733 43.5684C280.39 44.2499 279.497 42.9672 278.314 42.6398C280.6 42.6131 281.703 43.6085 283.163 43.5684C284.58 43.4014 282.023 43.0407 282.306 42.4861C282.812 42.4861 283.132 43.3547 283.729 42.7935C283.471 42.6933 284.395 42.3325 283.446 42.0185C283.871 41.9918 284.5 42.0719 284.586 41.8648C283.662 41.6844 284.592 41.4573 283.729 41.2435C284.919 40.8761 285.393 41.4907 286.582 41.5508C286.674 41.1901 286.539 40.9562 286.299 40.7758C287.05 40.9362 287.26 41.3905 288.011 41.5508C287.038 40.5019 286.496 40.1545 285.732 39.0789C288.628 39.2125 288.64 39.9875 290.291 40.0076C288.991 38.805 288.677 37.068 287.155 35.9857C288.628 35.9924 289.718 36.3598 290.291 35.6784C289.404 35.2842 286.711 35.8654 286.299 35.2174C287.137 34.8165 288.19 35.4846 288.868 35.0637C288.529 35.037 288.061 35.0904 288.011 34.9101C290.691 34.4892 292.035 34.3021 294 33.5204C292.546 33.4336 290.402 33.6073 289.151 33.0595C290.39 32.7254 290.593 31.8903 291.72 32.5918C292.429 31.5362 291.258 31.4627 291.72 30.5809C288.449 30.4473 287.112 29.2647 284.309 28.8773C286.884 28.0221 289.127 29.4184 291.72 28.7236C290.433 28.4964 289.41 28.1223 289.151 27.334C290.919 27.5745 290.618 26.6859 291.72 26.559C290.014 26.4521 289.281 25.8241 288.011 25.4767C289.472 25.136 287.352 24.6349 288.011 24.3944C289.102 24.8554 290.279 24.8754 291.431 24.3944C290.291 24.3142 289.613 23.9735 290.858 23.7798C290.359 23.6929 289.182 23.9668 289.145 23.6261C292.244 22.0895 290.993 21.1007 288.862 19.9182C289.817 20.1788 290.038 19.9316 290.574 19.6109C290.273 18.689 289.04 18.2814 288.578 17.4463C289.028 17.433 289.564 17.4664 289.435 17.139C288.19 15.7761 285.738 15.3151 284.302 14.1994C284.617 14.4399 284.734 12.9234 283.446 13.2708C284.752 12.8232 285.738 13.685 286.015 13.8921C286.52 12.3956 283.994 12.1484 283.163 10.7989C282.959 10.378 284.506 10.9058 284.302 10.4916C283.89 10.4047 283.606 10.251 283.446 10.0306C284.315 10.0239 284.555 10.3579 285.159 10.4916C285.251 9.87023 283.169 9.62304 283.736 9.2556C285.294 9.18879 283.656 9.72993 285.159 9.40925C285.165 8.57415 279.94 7.95951 281.167 6.93734C278.69 7.405 277.624 5.4141 275.461 5.70138C275.917 5.80159 275.917 4.95981 275.455 5.07338ZM53.6075 12.3355C52.8805 13.0236 52.061 13.6583 51.8947 14.6537C48.5862 14.7606 45.3886 14.794 42.7701 14.8074C42.6038 14.1527 43.5403 14.0925 44.1933 13.8787C44.2981 13.6182 43.9715 13.5848 43.6204 13.5714C45.1606 12.2687 50.3236 12.1885 53.6075 12.3355ZM283.15 12.1818C284.216 12.2753 284.623 12.723 285.43 12.9568C284.839 13.2173 283.298 12.6762 283.15 12.1818ZM214.146 14.9677C218.096 14.6804 223.708 14.8341 226.98 15.4287C222.458 15.4087 218.465 15.0947 214.146 14.9677ZM248.938 15.8897C242.66 16.0901 233.215 15.7627 228.693 15.4287C235.23 15.0813 242.204 15.8296 248.938 15.8897ZM280.587 28.2626C280.63 27.8818 281.555 28.2159 281.727 28.2626C284.654 28.2493 281.45 28.6167 280.587 28.2626ZM260.342 49.2873C260.379 48.9465 261.55 49.2204 262.055 49.1336C261.691 49.7416 262.837 49.5344 263.195 49.7549C262.209 50.2226 260.576 49.7282 260.342 49.2873ZM260.059 55.1597C250.109 55.1731 238.834 56.3155 229.266 55.781C228.144 55.7209 226.598 55.2399 225.273 55.3201C223.616 54.9059 224.54 56.2955 223.561 55.781C187.481 55.9547 156.306 54.9593 121.478 55.3201C137.866 55.0929 153.355 54.2845 168.813 54.2378C187.987 54.1843 207.363 54.7388 227.269 53.7768C227.762 53.7501 227.886 53.6031 228.409 53.6231C229.796 53.6766 230.911 54.1108 232.402 54.2378C236.148 54.5584 241.619 54.1776 246.658 54.3914C251.384 54.5919 256.097 54.4449 260.059 55.1597Z" fill="currentColor"/>
    </symbol>
</svg>